<?xml version="1.0" encoding="UTF-8"?>
<svg version="1.1" xmlns="http://www.w3.org/2000/svg" width="256" height="256">
<path d="M0 0 C0.99 0 1.98 0 3 0 C3.495 0.99 3.495 0.99 4 2 C4.95934196 2.0154612 4.95934196 2.0154612 5.93806458 2.03123474 C12.63873017 2.14003071 19.33928087 2.2545619 26.03979492 2.37231445 C28.535213 2.41543078 31.03065618 2.45712056 33.52612305 2.49731445 C37.12816914 2.55558602 40.7300916 2.61911185 44.33203125 2.68359375 C45.43456741 2.70030624 46.53710358 2.71701874 47.67304993 2.73423767 C53.68380818 2.84730888 59.60992279 3.1865841 65.59205627 3.77961731 C68.55711383 4.05098884 71.49584054 4.12937592 74.47265625 4.1328125 C76.0978418 4.13474609 76.0978418 4.13474609 77.75585938 4.13671875 C79.39264648 4.13091797 79.39264648 4.13091797 81.0625 4.125 C82.75149414 4.13080078 82.75149414 4.13080078 84.47460938 4.13671875 C85.54646484 4.13542969 86.61832031 4.13414063 87.72265625 4.1328125 C89.17297241 4.13112061 89.17297241 4.13112061 90.65258789 4.12939453 C93.02165034 4.15471969 93.02165034 4.15471969 95 3 C111.32198142 3.32198142 111.32198142 3.32198142 116 8 C116.99688512 12.2157658 117.02193347 15.97467293 116.66015625 20.2734375 C116.56669922 21.42714844 116.47324219 22.58085938 116.37695312 23.76953125 C116.27318359 24.95933594 116.16941406 26.14914063 116.0625 27.375 C115.96259766 28.58800781 115.86269531 29.80101563 115.75976562 31.05078125 C115.51308289 34.03446765 115.25961764 37.01741592 115 40 C114.34 40 113.68 40 113 40 C113.01160156 40.99257812 113.02320313 41.98515625 113.03515625 43.0078125 C113.10688423 52.06346994 112.78993381 60.97218507 112 70 C111.34 70 110.68 70 110 70 C110 73.63 110 77.26 110 81 C109.34 81 108.68 81 108 81 C107.67 86.61 107.34 92.22 107 98 C106.34 98 105.68 98 105 98 C105.00523682 98.63091553 105.01047363 99.26183105 105.01586914 99.91186523 C105.03657826 102.75373347 105.04964066 105.59558588 105.0625 108.4375 C105.07087891 109.43072266 105.07925781 110.42394531 105.08789062 111.44726562 C105.09111328 112.39150391 105.09433594 113.33574219 105.09765625 114.30859375 C105.10289307 115.18314209 105.10812988 116.05769043 105.11352539 116.95874023 C105 119 105 119 104 120 C102.74584892 130.24223379 102.68830123 140.64550858 102.39453125 150.94921875 C102.35714844 152.10550781 102.31976563 153.26179687 102.28125 154.453125 C102.25095703 155.49629883 102.22066406 156.53947266 102.18945312 157.61425781 C102 160 102 160 101 161 C92.47011249 161.6656718 82.82012357 161.67048998 76 156 C77.19976433 159.08510827 78.50002556 162.05047042 80 165 C77.79997245 164.95769178 75.59994494 164.91538131 73.3999176 164.87306213 C71.393357 164.83448342 69.38679569 164.79594116 67.38023376 164.75743103 C61.66663992 164.64771748 55.95306036 164.5373261 50.23950195 164.42578125 C39.11325579 164.20923615 27.98701805 163.99679565 16.86026001 163.80809021 C12.11061823 163.72731453 7.36103377 163.64341555 2.6114502 163.55929565 C0.33714407 163.51990943 -1.9371895 163.48207646 -4.21154785 163.4458313 C-7.3976241 163.39491107 -10.58356582 163.33863478 -13.76953125 163.28125 C-14.70587906 163.26770981 -15.64222687 163.25416962 -16.60694885 163.24021912 C-29.315806 162.99676788 -29.315806 162.99676788 -34.0625 160.1875 C-36.33848088 156.44314437 -36.07768808 155.67882283 -35.296875 151.5234375 C-35.09586182 150.45279053 -34.89484863 149.38214355 -34.68774414 148.27905273 C-33.64300125 143.29788773 -32.45652952 138.3658852 -31.1875 133.4375 C-30.79437622 131.88059448 -30.79437622 131.88059448 -30.39331055 130.29223633 C-29.17247114 125.47938983 -27.92228412 120.67705658 -26.6015625 115.890625 C-24.19168287 107.12350982 -22.32831911 98.4991193 -21.02050781 89.49755859 C-20.30752964 84.67132252 -19.33223062 80.14537587 -17.80078125 75.50390625 C-15.12931344 67.15068253 -13.33328829 58.46976378 -11.36328125 49.9296875 C-10.91545815 47.98875185 -10.46763366 46.04781652 -10.01971436 44.10690308 C-9.7149034 42.78562835 -9.41041933 41.46427817 -9.10626221 40.14285278 C-7.13206928 31.58232785 -5.0682012 23.07329576 -2.51000977 14.66650391 C-1.06658749 9.79768394 -0.42730899 5.03862486 0 0 Z M-13 81 C-12 83 -12 83 -12 83 Z M-30 155 C-29 157 -29 157 -29 157 Z " fill="#428C53" transform="translate(93,45)"/>
<path d="M0 0 C0.99 0 1.98 0 3 0 C3.33 0.66 3.66 1.32 4 2 C4.95934196 2.0154612 4.95934196 2.0154612 5.93806458 2.03123474 C12.63873017 2.14003071 19.33928087 2.2545619 26.03979492 2.37231445 C28.535213 2.41543078 31.03065618 2.45712056 33.52612305 2.49731445 C37.12816914 2.55558602 40.7300916 2.61911185 44.33203125 2.68359375 C45.98583549 2.70866249 45.98583549 2.70866249 47.67304993 2.73423767 C53.68380818 2.84730888 59.60992279 3.1865841 65.59205627 3.77961731 C68.55711383 4.05098884 71.49584054 4.12937592 74.47265625 4.1328125 C76.0978418 4.13474609 76.0978418 4.13474609 77.75585938 4.13671875 C79.39264648 4.13091797 79.39264648 4.13091797 81.0625 4.125 C82.75149414 4.13080078 82.75149414 4.13080078 84.47460938 4.13671875 C85.54646484 4.13542969 86.61832031 4.13414063 87.72265625 4.1328125 C89.17297241 4.13112061 89.17297241 4.13112061 90.65258789 4.12939453 C93.02165034 4.15471969 93.02165034 4.15471969 95 3 C111.32198142 3.32198142 111.32198142 3.32198142 116 8 C116.99688512 12.2157658 117.02193347 15.97467293 116.66015625 20.2734375 C116.56669922 21.42714844 116.47324219 22.58085938 116.37695312 23.76953125 C116.27318359 24.95933594 116.16941406 26.14914063 116.0625 27.375 C115.96259766 28.58800781 115.86269531 29.80101563 115.75976562 31.05078125 C115.51308289 34.03446765 115.25961764 37.01741592 115 40 C114.34 40 113.68 40 113 40 C113.01160156 40.99257812 113.02320313 41.98515625 113.03515625 43.0078125 C113.10688423 52.06346994 112.78993381 60.97218507 112 70 C111.34 70 110.68 70 110 70 C110 73.63 110 77.26 110 81 C109.34 81 108.68 81 108 81 C107.67 86.61 107.34 92.22 107 98 C106.34 98 105.68 98 105 98 C105.00523682 98.63091553 105.01047363 99.26183105 105.01586914 99.91186523 C105.03657826 102.75373347 105.04964066 105.59558588 105.0625 108.4375 C105.07087891 109.43072266 105.07925781 110.42394531 105.08789062 111.44726562 C105.09111328 112.39150391 105.09433594 113.33574219 105.09765625 114.30859375 C105.10289307 115.18314209 105.10812988 116.05769043 105.11352539 116.95874023 C105 119 105 119 104 120 C102.74584892 130.24223379 102.68830123 140.64550858 102.39453125 150.94921875 C102.35714844 152.10550781 102.31976563 153.26179687 102.28125 154.453125 C102.25095703 155.49629883 102.22066406 156.53947266 102.18945312 157.61425781 C102 160 102 160 101 161 C94.04848746 161.54249553 83.99798234 162.11246432 78.21875 157.61328125 C77 156 77 156 77 153 C77.66 153 78.32 153 79 153 C79.10957031 151.87722656 79.21914062 150.75445312 79.33203125 149.59765625 C80.79367599 135.51142876 80.79367599 135.51142876 83.3359375 128.9375 C84.45182861 125.68172358 84.68941269 122.41646037 85 119 C85.66 119 86.32 119 87 119 C87.33 116.36 87.66 113.72 88 111 C88.66 111 89.32 111 90 111 C90 106.71 90 102.42 90 98 C90.66 98 91.32 98 92 98 C92.33 92.72 92.66 87.44 93 82 C93.66 82 94.32 82 95 82 C95.33 78.37 95.66 74.74 96 71 C96.66 71 97.32 71 98 71 C98 67.04 98 63.08 98 59 C98.66 58.67 99.32 58.34 100 58 C101.74199701 54.41353557 102.45119974 50.93306853 103 47 C103.66 47 104.32 47 105 47 C105.66 42.71 106.32 38.42 107 34 C107.66 34 108.32 34 109 34 C109.07347656 32.33710937 109.07347656 32.33710937 109.1484375 30.640625 C109.22349215 29.17705935 109.29903881 27.71351888 109.375 26.25 C109.4059375 25.52039063 109.436875 24.79078125 109.46875 24.0390625 C109.6748494 20.26057344 109.91512843 17.22053332 112 14 C112.66 14 113.32 14 114 14 C114.16687448 11.58354218 114.16687448 11.58354218 114 9 C110.94919054 5.94919054 107.37189221 6.64211292 103.2734375 6.5859375 C101.97921371 6.55688828 101.97921371 6.55688828 100.65884399 6.5272522 C97.89766384 6.46737796 95.13644216 6.42104002 92.375 6.375 C90.50518995 6.33682741 88.63539762 6.29777611 86.765625 6.2578125 C82.17722691 6.16167008 77.58874649 6.07766834 73 6 C73 7.32 73 8.64 73 10 C71.69466309 9.93433838 70.38932617 9.86867676 69.04443359 9.80102539 C54.90688146 9.11182732 40.77601275 8.71393104 26.625 8.4375 C24.50910946 8.3941296 22.39322399 8.35051081 20.27734375 8.30664062 C15.18494944 8.20158113 10.09249957 8.09982147 5 8 C5.00262848 8.68720627 5.00525696 9.37441254 5.00796509 10.08244324 C5.01103165 11.43418388 5.01103165 11.43418388 5.01416016 12.81323242 C5.01678864 13.70668869 5.01941711 14.60014496 5.02212524 15.52067566 C4.97778381 20.489516 4.75716851 25.71417047 1.63671875 29.7734375 C0.0625 31.1875 0.0625 31.1875 -3 33 C-3.99 32.67 -4.98 32.34 -6 32 C-6.33 32.99 -6.66 33.98 -7 35 C-6.33125354 28.30493605 -4.75673907 22.22410167 -2.81640625 15.79882812 C-1.27655722 10.51869493 -0.47911999 5.48265715 0 0 Z " fill="#4B2C0F" transform="translate(93,45)"/>
<path d="M0 0 C5.49923749 -0.07411371 10.99818479 -0.12858464 16.49780273 -0.16479492 C18.36894799 -0.17988873 20.24005783 -0.20036589 22.11108398 -0.22631836 C24.79940526 -0.26267593 27.48725913 -0.27972015 30.17578125 -0.29296875 C31.43217155 -0.31619453 31.43217155 -0.31619453 32.71394348 -0.33988953 C38.54132148 -0.34158114 38.54132148 -0.34158114 40.73332214 1.29081726 C42.75745533 4.02206696 42.18559718 6.72111648 42 10 C41.67 9.34 41.34 8.68 41 8 C40.01 8.66 39.02 9.32 38 10 C37.71069363 11.9057394 37.71069363 11.9057394 37.9375 14.0625 C38.12059479 18.96625608 37.2503201 23.2778089 36 28 C35.34 28 34.68 28 34 28 C34.04125 29.03125 34.0825 30.0625 34.125 31.125 C34.00424851 34.86829627 33.35127982 37.53734547 32 41 C31.34 41 30.68 41 30 41 C30.061875 41.86625 30.12375 42.7325 30.1875 43.625 C29.97544498 47.44199033 28.87955693 49.71077536 27 53 C26.34 53 25.68 53 25 53 C25 56.96 25 60.92 25 65 C24.34 65 23.68 65 23 65 C23.01160156 65.62648438 23.02320313 66.25296875 23.03515625 66.8984375 C23.04417969 67.71570313 23.05320313 68.53296875 23.0625 69.375 C23.07410156 70.18710938 23.08570313 70.99921875 23.09765625 71.8359375 C23 74 23 74 22 76 C21.34 76 20.68 76 20 76 C20.01160156 76.98742187 20.02320313 77.97484375 20.03515625 78.9921875 C20.04417969 80.27351563 20.05320313 81.55484375 20.0625 82.875 C20.07410156 84.15117187 20.08570313 85.42734375 20.09765625 86.7421875 C20 90 20 90 19 92 C18.34 92 17.68 92 17 92 C17 96.29 17 100.58 17 105 C16.34 105 15.68 105 15 105 C14.67 107.64 14.34 110.28 14 113 C13.34 113 12.68 113 12 113 C12.0928125 114.7015625 12.0928125 114.7015625 12.1875 116.4375 C12.19311348 119.65402257 11.74790851 122.11741088 10.625 125.125 C8.71088857 130.28948932 8.10593237 135.51538667 7.4296875 140.9609375 C7 144 7 144 6 147 C5.34 147 4.68 147 4 147 C3.50455803 151.75404012 3.50455803 151.75404012 5.5 155.8125 C5.995 156.204375 6.49 156.59625 7 157 C7 157.66 7 158.32 7 159 C4.79997245 158.95769178 2.59994494 158.91538131 0.3999176 158.87306213 C-1.606643 158.83448342 -3.61320431 158.79594116 -5.61976624 158.75743103 C-11.33336008 158.64771748 -17.04693964 158.5373261 -22.76049805 158.42578125 C-33.88674421 158.20923615 -45.01298195 157.99679565 -56.13973999 157.80809021 C-60.88938177 157.72731453 -65.63896623 157.64341555 -70.3885498 157.55929565 C-72.66285593 157.51990943 -74.9371895 157.48207646 -77.21154785 157.4458313 C-80.3976241 157.39491107 -83.58356582 157.33863478 -86.76953125 157.28125 C-87.70587906 157.26770981 -88.64222687 157.25416962 -89.60694885 157.24021912 C-102.315806 156.99676788 -102.315806 156.99676788 -107.0625 154.1875 C-109.33848088 150.44314437 -109.07768808 149.67882283 -108.296875 145.5234375 C-108.09586182 144.45279053 -107.89484863 143.38214355 -107.68774414 142.27905273 C-106.64300125 137.29788773 -105.45652952 132.3658852 -104.1875 127.4375 C-103.79437622 125.88059448 -103.79437622 125.88059448 -103.39331055 124.29223633 C-102.17247114 119.47938983 -100.92228412 114.67705658 -99.6015625 109.890625 C-97.19168287 101.12350982 -95.32831911 92.4991193 -94.02050781 83.49755859 C-93.30935922 78.68370716 -92.34322326 74.16680538 -90.80859375 69.5390625 C-89.77362851 66.28917166 -88.94465818 62.99655051 -88.125 59.6875 C-87.9602417 59.02564697 -87.7954834 58.36379395 -87.62573242 57.68188477 C-86.62040973 53.60878305 -85.65308286 49.5277663 -84.703125 45.44140625 C-84.48253418 44.4975708 -84.26194336 43.55373535 -84.03466797 42.58129883 C-83.60196582 40.72413864 -83.17374878 38.86592653 -82.75048828 37.0065918 C-82.55181152 36.15363525 -82.35313477 35.30067871 -82.1484375 34.421875 C-81.97489746 33.66487305 -81.80135742 32.90787109 -81.62255859 32.12792969 C-80.96553134 29.88218476 -80.22801507 27.9943453 -79 26 C-77.33499557 25.65846063 -75.66821323 25.32550502 -74 25 C-72.17662247 23.0431712 -72.17662247 23.0431712 -71 21 C-71.33 23.31 -71.66 25.62 -72 28 C-72.66 28 -73.32 28 -74 28 C-73.94779297 28.89138672 -73.94779297 28.89138672 -73.89453125 29.80078125 C-73.67040775 36.6632295 -74.91772696 42.48050228 -77 49 C-77.66 49 -78.32 49 -79 49 C-78.9175 50.175625 -78.835 51.35125 -78.75 52.5625 C-78.71552139 59.75703607 -80.75413484 68.50826968 -84 75 C-84.66 75 -85.32 75 -86 75 C-85.95875 76.299375 -85.9175 77.59875 -85.875 78.9375 C-85.875 82.99693785 -86.45145082 86.5437877 -87.42578125 90.46875 C-88.36354991 94.60258734 -88.92251418 98.79208048 -89.53515625 102.984375 C-89.95016426 105.67669584 -90.44214192 108.33412953 -91 111 C-91.66 111 -92.32 111 -93 111 C-92.938125 112.155 -92.87625 113.31 -92.8125 114.5 C-92.78725644 119.21213121 -94.15525488 122.69559472 -96 127 C-96.66 127 -97.32 127 -98 127 C-97.98839844 127.75925781 -97.97679688 128.51851562 -97.96484375 129.30078125 C-97.95582031 130.29464844 -97.94679688 131.28851563 -97.9375 132.3125 C-97.92589844 133.29863281 -97.91429688 134.28476563 -97.90234375 135.30078125 C-98 138 -98 138 -99 141 C-99.66 141 -100.32 141 -101 141 C-101 142.98 -101 144.96 -101 147 C-101.66 147 -102.32 147 -103 147 C-103 148.32 -103 149.64 -103 151 C-101.93458984 150.98259766 -101.93458984 150.98259766 -100.84765625 150.96484375 C-99.92855469 150.95582031 -99.00945312 150.94679687 -98.0625 150.9375 C-97.14597656 150.92589844 -96.22945312 150.91429687 -95.28515625 150.90234375 C-93 151 -93 151 -92 152 C-89.20091293 152.1252097 -86.42529671 152.18608723 -83.62475586 152.20532227 C-82.74678848 152.21522186 -81.86882111 152.22512146 -80.96424866 152.23532104 C-78.04780825 152.26703427 -75.13135152 152.29173211 -72.21484375 152.31640625 C-70.19844629 152.33696731 -68.18205323 152.35796354 -66.16566467 152.37937927 C-60.84739734 152.43468759 -55.52909055 152.4840581 -50.21075439 152.53222656 C-44.78825349 152.5823778 -39.36581018 152.63809707 -33.94335938 152.69335938 C-23.29562207 152.80104802 -12.64783485 152.90246906 -2 153 C-2.01160156 152.37351563 -2.02320313 151.74703125 -2.03515625 151.1015625 C-2.04417969 150.28429687 -2.05320312 149.46703125 -2.0625 148.625 C-2.07410156 147.81289062 -2.08570313 147.00078125 -2.09765625 146.1640625 C-2 144 -2 144 -1 142 C-0.34 142 0.32 142 1 142 C1.11593506 141.25838623 1.23187012 140.51677246 1.35131836 139.75268555 C1.87739551 136.39720196 2.40740062 133.04235041 2.9375 129.6875 C3.11990234 128.52025391 3.30230469 127.35300781 3.49023438 126.15039062 C3.66748047 125.03212891 3.84472656 123.91386719 4.02734375 122.76171875 C4.27085571 121.2142395 4.27085571 121.2142395 4.51928711 119.63549805 C5 117 5 117 6 114 C6.66 114 7.32 114 8 114 C7.97679687 113.39671875 7.95359375 112.7934375 7.9296875 112.171875 C7.91164063 111.37265625 7.89359375 110.5734375 7.875 109.75 C7.85179687 108.96109375 7.82859375 108.1721875 7.8046875 107.359375 C8 105 8 105 8.9140625 103.234375 C10.56732134 99.83270573 10.93514369 96.20495083 11.5 92.5 C11.62890625 91.69699463 11.7578125 90.89398926 11.890625 90.06665039 C12.45646872 86.53543193 12.99978888 83.00140491 13.53125 79.46484375 C14.21912948 75.02228879 14.95391338 70.85354691 16.5 66.625 C18.25522466 61.81985525 18.70679865 56.99242992 19.1796875 51.91796875 C19.89013784 47.39935833 21.86092524 43.39815893 23.66748047 39.22680664 C25.83772323 33.97138368 27.46100381 28.55765161 29.125 23.125 C29.78953773 20.95947938 30.45866817 18.79536178 31.1328125 16.6328125 C31.42043457 15.69324707 31.70805664 14.75368164 32.00439453 13.78564453 C33 11 33 11 36 5 C24.12 4.67 12.24 4.34 0 4 C0 2.68 0 1.36 0 0 Z " fill="#2C322C" transform="translate(166,51)"/>
<path d="M0 0 C0.33 0 0.66 0 1 0 C0.49135086 5.8093086 -0.16955254 11.59423011 -0.9375 17.375 C-1.16759766 19.11910156 -1.16759766 19.11910156 -1.40234375 20.8984375 C-1.94383055 23.70850624 -2.70879269 25.50055453 -4 28 C-4.44811137 30.35564596 -4.44811137 30.35564596 -4.625 32.75 C-4.69976562 33.54921875 -4.77453125 34.3484375 -4.8515625 35.171875 C-4.92503906 36.07679688 -4.92503906 36.07679688 -5 37 C-5.66 37 -6.32 37 -7 37 C-7.10957031 38.01578125 -7.21914062 39.0315625 -7.33203125 40.078125 C-8.29591003 48.58513251 -9.65372062 56.7410966 -12 65 C-12.66 65 -13.32 65 -14 65 C-14.33 68.63 -14.66 72.26 -15 76 C-26.71726788 76.02312215 -38.43453037 76.04091443 -50.15181637 76.05181217 C-55.59202312 76.05704128 -61.03221431 76.06413943 -66.47241211 76.07543945 C-71.71785702 76.08626735 -76.96328692 76.09227662 -82.20874214 76.09487724 C-84.21470946 76.09673167 -86.22067592 76.10035262 -88.22663689 76.10573006 C-91.02602824 76.11293919 -93.82535679 76.113991 -96.62475586 76.11352539 C-97.88171265 76.1189183 -97.88171265 76.1189183 -99.1640625 76.12442017 C-104.88594784 76.11405216 -104.88594784 76.11405216 -106 75 C-107.51469448 74.76807135 -109.03754562 74.58784762 -110.5625 74.4375 C-111.80193359 74.31181641 -111.80193359 74.31181641 -113.06640625 74.18359375 C-113.70449219 74.12300781 -114.34257813 74.06242187 -115 74 C-115.33 72.68 -115.66 71.36 -116 70 C-115.34 70 -114.68 70 -114 70 C-114 68.02 -114 66.04 -114 64 C-112.515 63.505 -112.515 63.505 -111 63 C-110.34 63.66 -109.68 64.32 -109 65 C-107.09291157 65.91428339 -107.09291157 65.91428339 -105 66 C-104.33871094 65.23816406 -104.33871094 65.23816406 -103.6640625 64.4609375 C-102 63 -102 63 -99.73828125 63.14453125 C-96.36914062 64.07226562 -96.36914062 64.07226562 -93 65 C-93 62.03 -93 59.06 -93 56 C-92.01 56 -91.02 56 -90 56 C-89.34 54.35 -88.68 52.7 -88 51 C-87.67 51 -87.34 51 -87 51 C-86.97287649 53.39591038 -86.9531018 55.79150957 -86.9375 58.1875 C-86.92912109 58.86103516 -86.92074219 59.53457031 -86.91210938 60.22851562 C-86.89393462 63.95434131 -87.10700608 67.3788042 -88 71 C-86.35 71.33 -84.7 71.66 -83 72 C-82.34 69.69 -81.68 67.38 -81 65 C-78.5 64 -78.5 64 -75 64 C-72.66069937 65.86277643 -70.73229679 67.8946931 -68.734375 70.1171875 C-67.12910945 72.08330359 -67.12910945 72.08330359 -65 73 C-65.05220703 71.06447266 -65.05220703 71.06447266 -65.10546875 69.08984375 C-65.13362342 67.37240894 -65.16092177 65.65495993 -65.1875 63.9375 C-65.21263672 63.08994141 -65.23777344 62.24238281 -65.26367188 61.36914062 C-65.32896257 55.73237698 -64.54091107 52.03100391 -62 47 C-61.31163487 45.00736409 -60.63718601 43.00958663 -60 41 C-59.34 41 -58.68 41 -58 41 C-56.97299973 45.04003784 -57.07849655 48.42889233 -57.5 52.5625 C-58.28421087 57.93310749 -58.28421087 57.93310749 -57 63 C-54.34416529 64.12359901 -54.34416529 64.12359901 -51 65 C-48.1790676 66.14137775 -45.40525174 67.38821532 -42.625 68.625 C-41.88894531 68.94984375 -41.15289062 69.2746875 -40.39453125 69.609375 C-38.59529031 70.40384503 -36.79749504 71.20158771 -35 72 C-34.21625 71.175 -33.4325 70.35 -32.625 69.5 C-30 67 -30 67 -28 67 C-27.71125 66.195625 -27.4225 65.39125 -27.125 64.5625 C-26 62 -26 62 -24 61 C-23.9175 61.598125 -23.835 62.19625 -23.75 62.8125 C-22.79544128 65.5966296 -21.42867729 66.43311142 -19 68 C-18.81824219 67.07767578 -18.81824219 67.07767578 -18.6328125 66.13671875 C-18.46523437 65.32847656 -18.29765625 64.52023438 -18.125 63.6875 C-17.96257812 62.88699219 -17.80015625 62.08648437 -17.6328125 61.26171875 C-17 59 -17 59 -15 56 C-14.57914122 53.5617956 -14.25438297 51.18996561 -14 48.734375 C-13.87818359 47.66694061 -13.87818359 47.66694061 -13.75390625 46.57794189 C-13.49488751 44.30274864 -13.24648141 42.02658316 -13 39.75 C-12.75277631 37.4878067 -12.5030451 35.22601489 -12.24609375 32.96490479 C-12.08659469 31.55975444 -11.93260127 30.15396385 -11.78515625 28.74749756 C-11.28218517 24.29479716 -10.32570774 20.26021706 -9 16 C-8.34 16 -7.68 16 -7 16 C-6.34 14.68 -5.68 13.36 -5 12 C-4.34 12 -3.68 12 -3 12 C-2.814375 10.700625 -2.814375 10.700625 -2.625 9.375 C-2.01941879 6.10486147 -1.11693965 3.12743101 0 0 Z " fill="#73A47E" transform="translate(179,128)"/>
<path d="M0 0 C0.66 0 1.32 0 2 0 C2.10635926 6.42882667 2.05873075 12.64761552 1 19 C0.67 19.33 0.34 19.66 0 20 C-0.18541131 21.89237259 -0.32310701 23.78951011 -0.4375 25.6875 C-0.76910333 30.16677675 -1.58206422 33.74619265 -3 38 C-3.31137541 40.99698835 -3.51245962 43.9940545 -3.71875 47 C-3.95840451 49.55631472 -4.36197611 51.83546607 -5 54.3125 C-6.35262822 59.74305183 -6.48089558 65.27376916 -6.75390625 70.83984375 C-7 74 -7 74 -8 76 C-9.22451489 86.03295946 -9.29204572 96.21738009 -9.5625 106.3125 C-9.60583285 107.84310711 -9.64945099 109.37370617 -9.69335938 110.90429688 C-9.7988506 114.60277793 -9.90052066 118.30135177 -10 122 C-19.68398943 122.07111865 -19.68398943 122.07111865 -23.9375 121.625 C-24.66839844 121.55539063 -25.39929688 121.48578125 -26.15234375 121.4140625 C-28 121 -28 121 -30 119 C-29.34 119 -28.68 119 -28 119 C-27.89042969 117.87722656 -27.78085938 116.75445312 -27.66796875 115.59765625 C-26.20632401 101.51142876 -26.20632401 101.51142876 -23.6640625 94.9375 C-22.54817139 91.68172358 -22.31058731 88.41646037 -22 85 C-21.34 85 -20.68 85 -20 85 C-19.67 82.36 -19.34 79.72 -19 77 C-18.34 77 -17.68 77 -17 77 C-17 72.71 -17 68.42 -17 64 C-16.34 64 -15.68 64 -15 64 C-14.67 58.72 -14.34 53.44 -14 48 C-13.34 48 -12.68 48 -12 48 C-11.67 44.37 -11.34 40.74 -11 37 C-10.34 37 -9.68 37 -9 37 C-9 33.04 -9 29.08 -9 25 C-8.34 24.67 -7.68 24.34 -7 24 C-5.25800299 20.41353557 -4.54880026 16.93306853 -4 13 C-3.34 13 -2.68 13 -2 13 C-1.34 8.71 -0.68 4.42 0 0 Z " fill="#FCFCFA" transform="translate(200,79)"/>
<path d="M0 0 C5.49923749 -0.07411371 10.99818479 -0.12858464 16.49780273 -0.16479492 C18.36894799 -0.17988873 20.24005783 -0.20036589 22.11108398 -0.22631836 C24.79940526 -0.26267593 27.48725913 -0.27972015 30.17578125 -0.29296875 C31.43217155 -0.31619453 31.43217155 -0.31619453 32.71394348 -0.33988953 C38.54132148 -0.34158114 38.54132148 -0.34158114 40.73332214 1.29081726 C42.75745533 4.02206696 42.18559718 6.72111648 42 10 C41.505 9.01 41.505 9.01 41 8 C40.01 8.66 39.02 9.32 38 10 C37.71069363 11.9057394 37.71069363 11.9057394 37.9375 14.0625 C38.12059479 18.96625608 37.2503201 23.2778089 36 28 C35.34 28 34.68 28 34 28 C34.04125 29.03125 34.0825 30.0625 34.125 31.125 C34.00424851 34.86829627 33.35127982 37.53734547 32 41 C31.34 41 30.68 41 30 41 C30.061875 41.86625 30.12375 42.7325 30.1875 43.625 C29.97544498 47.44199033 28.87955693 49.71077536 27 53 C26.34 53 25.68 53 25 53 C25 56.96 25 60.92 25 65 C24.34 65 23.68 65 23 65 C23.01160156 65.62648438 23.02320313 66.25296875 23.03515625 66.8984375 C23.04417969 67.71570313 23.05320313 68.53296875 23.0625 69.375 C23.07410156 70.18710938 23.08570313 70.99921875 23.09765625 71.8359375 C23 74 23 74 22 76 C21.34 76 20.68 76 20 76 C20.01160156 76.98742187 20.02320313 77.97484375 20.03515625 78.9921875 C20.04417969 80.27351563 20.05320313 81.55484375 20.0625 82.875 C20.07410156 84.15117187 20.08570313 85.42734375 20.09765625 86.7421875 C20 90 20 90 19 92 C18.34 92 17.68 92 17 92 C17 96.29 17 100.58 17 105 C16.34 105 15.68 105 15 105 C14.67 107.64 14.34 110.28 14 113 C13.34 113 12.68 113 12 113 C12.061875 114.134375 12.12375 115.26875 12.1875 116.4375 C12.19311348 119.65402257 11.74790851 122.11741088 10.625 125.125 C8.71088857 130.28948932 8.10593237 135.51538667 7.4296875 140.9609375 C7 144 7 144 6 147 C5.34 147 4.68 147 4 147 C3.67 147.99 3.34 148.98 3 150 C3 149.34 3 148.68 3 148 C2.34 148 1.68 148 1 148 C0.01 149.98 0.01 149.98 -1 152 C-1.26549052 147.84064851 -1.05425923 144.77665764 0.41015625 140.86328125 C2.09477107 136.00463898 2.91973253 131.20613152 3.625 126.125 C3.86495742 124.46061446 4.10705369 122.7965355 4.3515625 121.1328125 C4.50359131 120.04830811 4.50359131 120.04830811 4.65869141 118.94189453 C5 117 5 117 6 114 C6.66 114 7.32 114 8 114 C7.97679687 113.39671875 7.95359375 112.7934375 7.9296875 112.171875 C7.90261719 110.97304687 7.90261719 110.97304687 7.875 109.75 C7.85179687 108.96109375 7.82859375 108.1721875 7.8046875 107.359375 C8 105 8 105 8.9140625 103.234375 C10.56732134 99.83270573 10.93514369 96.20495083 11.5 92.5 C11.62890625 91.69699463 11.7578125 90.89398926 11.890625 90.06665039 C12.45646872 86.53543193 12.99978888 83.00140491 13.53125 79.46484375 C14.21912948 75.02228879 14.95391338 70.85354691 16.5 66.625 C18.25522466 61.81985525 18.70679865 56.99242992 19.1796875 51.91796875 C19.89013784 47.39935833 21.86092524 43.39815893 23.66748047 39.22680664 C25.83772323 33.97138368 27.46100381 28.55765161 29.125 23.125 C29.78953773 20.95947938 30.45866817 18.79536178 31.1328125 16.6328125 C31.56424561 15.22346436 31.56424561 15.22346436 32.00439453 13.78564453 C33 11 33 11 36 5 C24.12 4.67 12.24 4.34 0 4 C0 2.68 0 1.36 0 0 Z " fill="#222823" transform="translate(166,51)"/>
<path d="M0 0 C7.6497323 -0.02547408 15.29945356 -0.04291882 22.94921875 -0.05493164 C25.54850676 -0.05994271 28.14779198 -0.06675334 30.74707031 -0.07543945 C34.49544975 -0.08764682 38.24379173 -0.09326073 41.9921875 -0.09765625 C43.14363251 -0.10281754 44.29507751 -0.10797882 45.48141479 -0.11329651 C51.27371509 -0.11369409 56.92613621 0.10854648 62.68112183 0.76072693 C66.39944996 1.14440202 70.11635024 1.23157199 73.8515625 1.31640625 C75.02892471 1.3475779 75.02892471 1.3475779 76.23007202 1.37937927 C78.69497412 1.44386146 81.15996648 1.50327925 83.625 1.5625 C85.31381077 1.60578206 87.002613 1.64939911 88.69140625 1.69335938 C92.79418244 1.79943596 96.89704777 1.9009764 101 2 C98.39680887 3.73546076 96.47732763 4.65175233 93.5625 5.625 C92.80066406 5.88539062 92.03882813 6.14578125 91.25390625 6.4140625 C89 7 89 7 85 7 C85.020625 8.27875 85.04125 9.5575 85.0625 10.875 C85.125 14.75 85.125 14.75 84 17 C82.0625 16.6875 82.0625 16.6875 80 16 C79.505 14.515 79.505 14.515 79 13 C78.484375 12.484375 77.96875 11.96875 77.4375 11.4375 C76.963125 10.963125 76.48875 10.48875 76 10 C76 9.34 76 8.68 76 8 C74.35 8 72.7 8 71 8 C71.33 6.68 71.66 5.36 72 4 C71.24976563 4.01160156 70.49953125 4.02320313 69.7265625 4.03515625 C63.7270009 4.08804911 57.91233085 3.90113074 51.9609375 3.12109375 C49.92090671 2.8305917 49.92090671 2.8305917 48 4 C45.12089412 4.23274209 42.25853505 4.41972757 39.375 4.5625 C38.57320312 4.60568359 37.77140625 4.64886719 36.9453125 4.69335938 C34.9637489 4.79951457 32.98189729 4.90026855 31 5 C29.89257475 9.77108772 30.1342968 13.19928224 31 18 C31.66 18.66 32.32 19.32 33 20 C25.76410027 19.39700836 19.00629124 17.8849413 12 16 C12.02320312 16.64066406 12.04640625 17.28132813 12.0703125 17.94140625 C12.18440863 23.40987096 11.79791904 27.83098277 10 33 C9.67 33 9.34 33 9 33 C8.90247539 27.53862186 9.22750855 22.40744018 10 17 C8.02 17.33 6.04 17.66 4 18 C3.8453125 19.918125 3.8453125 19.918125 3.6875 21.875 C3.10776122 27.01916102 2.19201829 32.27872983 0 37 C-1.485 37.495 -1.485 37.495 -3 38 C-3.103125 39.051875 -3.20625 40.10375 -3.3125 41.1875 C-3.99697368 44.9832177 -4.99700465 46.79520744 -7 50 C-7.72166191 52.31691454 -8.40059529 54.64848923 -9 57 C-9.66 57 -10.32 57 -11 57 C-11 53.7 -11 50.4 -11 47 C-10.34 47 -9.68 47 -9 47 C-8.87625 45.948125 -8.7525 44.89625 -8.625 43.8125 C-7.88438493 37.85537875 -6.93104276 31.92974803 -6 26 C-5.34 26 -4.68 26 -4 26 C-2.49198582 20.07565857 -1.61183104 14.21651667 -0.9296875 8.15234375 C-0.83937256 7.36661987 -0.74905762 6.580896 -0.65600586 5.7713623 C-0.43521131 3.84781771 -0.21731163 1.92394119 0 0 Z " fill="#73AB80" transform="translate(98,53)"/>
<path d="M0 0 C0.99 0 1.98 0 3 0 C3.33 0.66 3.66 1.32 4 2 C4.95934196 2.0154612 4.95934196 2.0154612 5.93806458 2.03123474 C12.63873017 2.14003071 19.33928087 2.2545619 26.03979492 2.37231445 C28.535213 2.41543078 31.03065618 2.45712056 33.52612305 2.49731445 C37.12816914 2.55558602 40.7300916 2.61911185 44.33203125 2.68359375 C45.98583549 2.70866249 45.98583549 2.70866249 47.67304993 2.73423767 C53.68380818 2.84730888 59.60992279 3.1865841 65.59205627 3.77961731 C68.55711383 4.05098884 71.49584054 4.12937592 74.47265625 4.1328125 C76.0978418 4.13474609 76.0978418 4.13474609 77.75585938 4.13671875 C79.39264648 4.13091797 79.39264648 4.13091797 81.0625 4.125 C82.75149414 4.13080078 82.75149414 4.13080078 84.47460938 4.13671875 C85.54646484 4.13542969 86.61832031 4.13414063 87.72265625 4.1328125 C89.17297241 4.13112061 89.17297241 4.13112061 90.65258789 4.12939453 C93.02165034 4.15471969 93.02165034 4.15471969 95 3 C111.32198142 3.32198142 111.32198142 3.32198142 116 8 C117.29300155 12.93691501 116.76979659 17.03908866 116 22 C115.67 22 115.34 22 115 22 C114.95101562 21.08476563 114.90203125 20.16953125 114.8515625 19.2265625 C114.73941406 17.44378906 114.73941406 17.44378906 114.625 15.625 C114.52058594 13.84996094 114.52058594 13.84996094 114.4140625 12.0390625 C114.29782654 8.89437681 114.29782654 8.89437681 112 7 C109.0633979 6.7540591 106.21437888 6.62624748 103.2734375 6.5859375 C101.97921371 6.55688828 101.97921371 6.55688828 100.65884399 6.5272522 C97.89766384 6.46737796 95.13644216 6.42104002 92.375 6.375 C90.50518995 6.33682741 88.63539762 6.29777611 86.765625 6.2578125 C82.17722691 6.16167008 77.58874649 6.07766834 73 6 C73 7.32 73 8.64 73 10 C71.69466309 9.93433838 70.38932617 9.86867676 69.04443359 9.80102539 C54.90688146 9.11182732 40.77601275 8.71393104 26.625 8.4375 C24.50910946 8.3941296 22.39322399 8.35051081 20.27734375 8.30664062 C15.18494944 8.20158113 10.09249957 8.09982147 5 8 C5.00262848 8.68720627 5.00525696 9.37441254 5.00796509 10.08244324 C5.01103165 11.43418388 5.01103165 11.43418388 5.01416016 12.81323242 C5.01678864 13.70668869 5.01941711 14.60014496 5.02212524 15.52067566 C4.97778381 20.489516 4.75716851 25.71417047 1.63671875 29.7734375 C0.0625 31.1875 0.0625 31.1875 -3 33 C-3.99 32.67 -4.98 32.34 -6 32 C-6.33 32.99 -6.66 33.98 -7 35 C-6.33125354 28.30493605 -4.75673907 22.22410167 -2.81640625 15.79882812 C-1.27655722 10.51869493 -0.47911999 5.48265715 0 0 Z " fill="#4F5651" transform="translate(93,45)"/>
<path d="M0 0 C0.33 0 0.66 0 1 0 C0.49135086 5.8093086 -0.16955254 11.59423011 -0.9375 17.375 C-1.16759766 19.11910156 -1.16759766 19.11910156 -1.40234375 20.8984375 C-1.94383055 23.70850624 -2.70879269 25.50055453 -4 28 C-4.44811137 30.35564596 -4.44811137 30.35564596 -4.625 32.75 C-4.69976562 33.54921875 -4.77453125 34.3484375 -4.8515625 35.171875 C-4.90054688 35.77515625 -4.94953125 36.3784375 -5 37 C-5.66 37 -6.32 37 -7 37 C-7.16435547 38.52367187 -7.16435547 38.52367187 -7.33203125 40.078125 C-8.29591003 48.58513251 -9.65372062 56.7410966 -12 65 C-12.66 65 -13.32 65 -14 65 C-14.33 68.63 -14.66 72.26 -15 76 C-22.26 76 -29.52 76 -37 76 C-37 74.68 -37 73.36 -37 72 C-36.401875 71.9175 -35.80375 71.835 -35.1875 71.75 C-32.400657 70.79451097 -31.67123014 69.3549152 -30 67 C-29.34 67 -28.68 67 -28 67 C-27.71125 66.195625 -27.4225 65.39125 -27.125 64.5625 C-26 62 -26 62 -24 61 C-23.9175 61.598125 -23.835 62.19625 -23.75 62.8125 C-22.79544128 65.5966296 -21.42867729 66.43311142 -19 68 C-18.87882812 67.38511719 -18.75765625 66.77023438 -18.6328125 66.13671875 C-18.46523437 65.32847656 -18.29765625 64.52023438 -18.125 63.6875 C-17.96257812 62.88699219 -17.80015625 62.08648437 -17.6328125 61.26171875 C-17 59 -17 59 -15 56 C-14.57914122 53.5617956 -14.25438297 51.18996561 -14 48.734375 C-13.91878906 48.02275208 -13.83757812 47.31112915 -13.75390625 46.57794189 C-13.49488751 44.30274864 -13.24648141 42.02658316 -13 39.75 C-12.75277631 37.4878067 -12.5030451 35.22601489 -12.24609375 32.96490479 C-12.08659469 31.55975444 -11.93260127 30.15396385 -11.78515625 28.74749756 C-11.28218517 24.29479716 -10.32570774 20.26021706 -9 16 C-8.34 16 -7.68 16 -7 16 C-6.34 14.68 -5.68 13.36 -5 12 C-4.34 12 -3.68 12 -3 12 C-2.814375 10.700625 -2.814375 10.700625 -2.625 9.375 C-2.01941879 6.10486147 -1.11693965 3.12743101 0 0 Z " fill="#549764" transform="translate(179,128)"/>
<path d="M0 0 C2.31 0.33 4.62 0.66 7 1 C7.19412181 2.47831221 7.38012131 3.95769316 7.5625 5.4375 C7.71912109 6.67306641 7.71912109 6.67306641 7.87890625 7.93359375 C7.91886719 8.61550781 7.95882812 9.29742187 8 10 C7.67 10.33 7.34 10.66 7 11 C7.66 11.99 8.32 12.98 9 14 C8.71674268 18.53211719 8.31035357 19.68964643 5 23 C5 19.04 5 15.08 5 11 C2.70250112 11.86445017 2.70250112 11.86445017 2 14.6875 C1.67 15.780625 1.34 16.87375 1 18 C0.49339844 19.28197266 0.49339844 19.28197266 -0.0234375 20.58984375 C-1.29584296 25.03308361 -1.45873448 29.27498738 -1.625 33.875 C-1.66367188 34.75414062 -1.70234375 35.63328125 -1.7421875 36.5390625 C-1.83581034 38.69238793 -1.91896459 40.84616414 -2 43 C-4.96695379 41.57046772 -7.27796966 40.06179607 -9.75 37.875 C-10.36359375 37.33617187 -10.9771875 36.79734375 -11.609375 36.2421875 C-12.06828125 35.83226562 -12.5271875 35.42234375 -13 35 C-13.66 35.66 -14.32 36.32 -15 37 C-15 36.34 -15 35.68 -15 35 C-15.99 35 -16.98 35 -18 35 C-18.144375 35.78375 -18.28875 36.5675 -18.4375 37.375 C-19 40 -19 40 -20 42 C-21.65 41.67 -23.3 41.34 -25 41 C-25.495 39.515 -25.495 39.515 -26 38 C-23.27522706 34.94495156 -21.10369356 32.88149615 -17.25 31.5625 C-16.1775 31.046875 -15.105 30.53125 -14 30 C-13.08885 27.03344954 -13.08885 27.03344954 -13 24 C-12.34 23.01 -11.68 22.02 -11 21 C-10.67 19.824375 -10.34 18.64875 -10 17.4375 C-9 14 -9 14 -7 12 C-6.29289322 10.35008418 -5.62056011 8.68437744 -5 7 C-4.34 7 -3.68 7 -3 7 C-2.690625 6.21625 -2.38125 5.4325 -2.0625 4.625 C-1 2 -1 2 0 0 Z " fill="#549764" transform="translate(116,158)"/>
<path d="M0 0 C0.93423645 3.01031744 1.04449911 3.86650268 0 7 C-0.66 7 -1.32 7 -2 7 C-1.94779297 7.89138672 -1.94779297 7.89138672 -1.89453125 8.80078125 C-1.67040775 15.6632295 -2.91772696 21.48050228 -5 28 C-5.66 28 -6.32 28 -7 28 C-6.87625 29.7634375 -6.87625 29.7634375 -6.75 31.5625 C-6.71552139 38.75703607 -8.75413484 47.50826968 -12 54 C-12.66 54 -13.32 54 -14 54 C-14 56.97 -14 59.94 -14 63 C-14.33 62.34 -14.66 61.68 -15 61 C-16.98 61.66 -18.96 62.32 -21 63 C-21 64.98 -21 66.96 -21 69 C-21.33 69 -21.66 69 -22 69 C-22.60440549 61.59603278 -20.56340533 55.06206233 -18.56005859 48.00878906 C-17.66879698 44.81205823 -16.86581131 41.5948029 -16.0625 38.375 C-15.82152588 37.41255371 -15.82152588 37.41255371 -15.57568359 36.43066406 C-14.58542315 32.44840931 -13.63609899 28.45791426 -12.70703125 24.4609375 C-12.48587646 23.51428223 -12.26472168 22.56762695 -12.03686523 21.59228516 C-11.60344701 19.73103288 -11.17440353 17.86875517 -10.75024414 16.00537109 C-10.55164795 15.15281738 -10.35305176 14.30026367 -10.1484375 13.421875 C-9.97489746 12.66487305 -9.80135742 11.90787109 -9.62255859 11.12792969 C-8.96511244 8.88075294 -8.23211834 6.99380158 -7 5 C-5.33333333 4.66666667 -3.66666667 4.33333333 -2 4 C-0.63979849 2.03241727 -0.63979849 2.03241727 0 0 Z " fill="#323332" transform="translate(94,72)"/>
<path d="M0 0 C0.66 0 1.32 0 2 0 C3.30475618 2.60951236 3.11301572 4.52701285 3.09765625 7.4453125 C3.09443359 8.52167969 3.09121094 9.59804687 3.08789062 10.70703125 C3.07951172 11.83496094 3.07113281 12.96289062 3.0625 14.125 C3.05798828 15.26066406 3.05347656 16.39632812 3.04882812 17.56640625 C3.03701615 20.37765638 3.02054507 23.1888023 3 26 C2.34 26 1.68 26 1 26 C1.01160156 27.14339844 1.02320313 28.28679687 1.03515625 29.46484375 C1.04453288 30.95572754 1.05363321 32.44661309 1.0625 33.9375 C1.07087891 34.69224609 1.07925781 35.44699219 1.08789062 36.22460938 C1.09652441 38.14994313 1.05224333 40.07535581 1 42 C0.505 42.495 0.505 42.495 0 43 C-0.15858803 44.55944897 -0.27678579 46.1230879 -0.375 47.6875 C-0.75705376 52.05293396 -1.70110836 55.20183121 -4 59 C-4.99 59 -5.98 59 -7 59 C-6.86177801 55.85378318 -6.71314916 52.70814434 -6.5625 49.5625 C-6.52318359 48.66466797 -6.48386719 47.76683594 -6.44335938 46.84179688 C-6.40146484 45.98779297 -6.35957031 45.13378906 -6.31640625 44.25390625 C-6.27974854 43.46314697 -6.24309082 42.6723877 -6.20532227 41.85766602 C-6 40 -6 40 -5 39 C-4.78402547 37.26976657 -4.62877539 35.53186772 -4.5 33.79296875 C-4.4175 32.73142578 -4.335 31.66988281 -4.25 30.57617188 C-4.12625 28.8987793 -4.12625 28.8987793 -4 27.1875 C-3.8364222 24.99325713 -3.66987407 22.79923316 -3.5 20.60546875 C-3.4278125 19.62731201 -3.355625 18.64915527 -3.28125 17.64135742 C-3.03483359 15.32713944 -2.58874129 13.24344957 -2 11 C-1.97212191 8.66620563 -2.06332823 6.35505612 -2.16015625 4.0234375 C-2 2 -2 2 0 0 Z " fill="#492C10" transform="translate(205,59)"/>
<path d="M0 0 C0.97608217 2.92824652 1.08226668 4.95613276 1 8 C1.33 7.34 1.66 6.68 2 6 C2.66 6 3.32 6 4 6 C4.28875 7.0725 4.5775 8.145 4.875 9.25 C5.92236103 13.13029068 5.92236103 13.13029068 8 17 C-9.16 16.67 -26.32 16.34 -44 16 C-44 15.67 -44 15.34 -44 15 C-42.35 15 -40.7 15 -39 15 C-38.67 14.34 -38.34 13.68 -38 13 C-37.34 13 -36.68 13 -36 13 C-35.67 12.34 -35.34 11.68 -35 11 C-23.78 11 -12.56 11 -1 11 C-1 8.03 -1 5.06 -1 2 C-0.67 1.34 -0.34 0.68 0 0 Z " fill="#222622" transform="translate(165,193)"/>
<path d="M0 0 C0.99 0 1.98 0 3 0 C2.88206288 5.39363237 2.75783819 10.78706847 2.62768555 16.18041992 C2.5842718 18.01664247 2.54260161 19.85290708 2.50268555 21.68920898 C2.44513831 24.32288311 2.38140002 26.95634421 2.31640625 29.58984375 C2.29133751 30.82890724 2.29133751 30.82890724 2.26576233 32.09300232 C2.11387171 37.88612829 2.11387171 37.88612829 1 39 C-5.90868856 39.53915355 -16.11626749 40.15979115 -21.78125 35.55078125 C-23 34 -23 34 -23 32 C-22.31035156 32.0721875 -21.62070313 32.144375 -20.91015625 32.21875 C-19.50056641 32.35796875 -19.50056641 32.35796875 -18.0625 32.5 C-17.14597656 32.5928125 -16.22945312 32.685625 -15.28515625 32.78125 C-11.18467607 33.0542903 -7.10770366 33.04112845 -3 33 C-2.98018066 32.0713916 -2.96036133 31.1427832 -2.93994141 30.18603516 C-2.86191387 26.7454948 -2.77522538 23.30540109 -2.68261719 19.86523438 C-2.64430002 18.37541111 -2.60945192 16.88549446 -2.578125 15.39550781 C-2.53253271 13.25551952 -2.47453126 11.11617564 -2.4140625 8.9765625 C-2.3826416 7.68830566 -2.3512207 6.40004883 -2.31884766 5.07275391 C-2 2 -2 2 0 0 Z " fill="#482D12" transform="translate(193,167)"/>
<path d="M0 0 C0.66 0 1.32 0 2 0 C2.10635926 6.42882667 2.05873075 12.64761552 1 19 C0.67 19.33 0.34 19.66 0 20 C-0.23427778 22.01594582 -0.41336124 24.038474 -0.5625 26.0625 C-0.64628906 27.16722656 -0.73007813 28.27195312 -0.81640625 29.41015625 C-0.87699219 30.26480469 -0.93757812 31.11945313 -1 32 C-1.66 31.67 -2.32 31.34 -3 31 C-4.86808633 35.62573759 -6.33575929 40.14591703 -7.5 45 C-8.66711355 49.85887801 -10.14550805 54.36377013 -12 59 C-12.33 59.99 -12.66 60.98 -13 62 C-13.33 62 -13.66 62 -14 62 C-14 57.38 -14 52.76 -14 48 C-13.34 48 -12.68 48 -12 48 C-11.67 44.37 -11.34 40.74 -11 37 C-10.34 37 -9.68 37 -9 37 C-9 33.04 -9 29.08 -9 25 C-8.34 24.67 -7.68 24.34 -7 24 C-5.25800299 20.41353557 -4.54880026 16.93306853 -4 13 C-3.34 13 -2.68 13 -2 13 C-1.34 8.71 -0.68 4.42 0 0 Z " fill="#CFDCCF" transform="translate(200,79)"/>
<path d="M0 0 C2.6881249 -0.08164159 5.373723 -0.14079668 8.0625 -0.1875 C8.81466797 -0.21263672 9.56683594 -0.23777344 10.34179688 -0.26367188 C15.67315049 -0.33291023 19.26644955 0.50960976 24 3 C24.66 3.66 25.32 4.32 26 5 C26.99 5.66 27.98 6.32 29 7 C29.12375 6.195625 29.2475 5.39125 29.375 4.5625 C29.684375 3.2940625 29.684375 3.2940625 30 2 C37.53518824 -1.76759412 49.9229855 1.8776357 58 3 C58 3.99 58 4.98 58 6 C49.41922945 6.24911914 41.41826913 5.69882188 33 4 C33.061875 4.763125 33.12375 5.52625 33.1875 6.3125 C33 9 33 9 31.5 10.8125 C31.005 11.204375 30.51 11.59625 30 12 C29.40832031 11.79503906 28.81664062 11.59007813 28.20703125 11.37890625 C24.16339184 10.0002429 20.23144751 8.68249153 16 8 C15.67 7.01 15.34 6.02 15 5 C9.72 4.67 4.44 4.34 -1 4 C-0.67 2.68 -0.34 1.36 0 0 Z " fill="#225D2D" transform="translate(107,98)"/>
<path d="M0 0 C-2.25953144 5.70044226 -4.55497117 11.37643369 -7 17 C-8.9587043 16.85923685 -10.91696093 16.7122324 -12.875 16.5625 C-13.96554688 16.48128906 -15.05609375 16.40007812 -16.1796875 16.31640625 C-19 16 -19 16 -21 15 C-20.67 11.37 -20.34 7.74 -20 4 C-17.42032203 3.13310822 -14.83723873 2.28126211 -12.25 1.4375 C-11.52039063 1.19064453 -10.79078125 0.94378906 -10.0390625 0.68945312 C-9.33007812 0.46064453 -8.62109375 0.23183594 -7.890625 -0.00390625 C-6.91657715 -0.32597046 -6.91657715 -0.32597046 -5.92285156 -0.65454102 C-3.66555462 -1.06008636 -2.16526518 -0.69296911 0 0 Z " fill="#629F70" transform="translate(203,56)"/>
<path d="M0 0 C0.33 0 0.66 0 1 0 C0.49135086 5.8093086 -0.16955254 11.59423011 -0.9375 17.375 C-1.09089844 18.53773438 -1.24429688 19.70046875 -1.40234375 20.8984375 C-1.94383055 23.70850624 -2.70879269 25.50055453 -4 28 C-4.44811137 30.35564596 -4.44811137 30.35564596 -4.625 32.75 C-4.69976562 33.54921875 -4.77453125 34.3484375 -4.8515625 35.171875 C-4.90054688 35.77515625 -4.94953125 36.3784375 -5 37 C-5.66 37 -6.32 37 -7 37 C-7.13277344 38.08539063 -7.26554688 39.17078125 -7.40234375 40.2890625 C-7.58066254 41.73438322 -7.75905169 43.17969526 -7.9375 44.625 C-8.02451172 45.33785156 -8.11152344 46.05070312 -8.20117188 46.78515625 C-8.70782605 50.87591961 -9.2889043 54.93842635 -10 59 C-10.66 59 -11.32 59 -12 59 C-12.02716089 55.97910522 -12.04691657 52.95845871 -12.0625 49.9375 C-12.07087891 49.08994141 -12.07925781 48.24238281 -12.08789062 47.36914062 C-12.1067987 42.47194971 -11.80466679 37.84615113 -11 33 C-10.87146102 31.66700319 -10.7457253 30.33372718 -10.625 29 C-10.13520569 24.97280235 -8.70573229 21.68438175 -7 18 C-6.31163487 16.00736409 -5.63718601 14.00958663 -5 12 C-4.34 12 -3.68 12 -3 12 C-2.87625 11.13375 -2.7525 10.2675 -2.625 9.375 C-2.01941879 6.10486147 -1.11693965 3.12743101 0 0 Z " fill="#79AA84" transform="translate(179,128)"/>
<path d="M0 0 C8.46749702 -0.25027085 15.45088821 -0.2275026 23 4 C23 3.34 23 2.68 23 2 C25.3877654 0.8061173 26.87979139 0.87082963 29.54296875 0.8671875 C30.45240234 0.86589844 31.36183594 0.86460938 32.29882812 0.86328125 C33.25208984 0.86714844 34.20535156 0.87101562 35.1875 0.875 C36.12142578 0.87113281 37.05535156 0.86726563 38.01757812 0.86328125 C43.10245314 0.87043801 48.01450986 0.94588706 53 2 C54.8125 4.0625 54.8125 4.0625 56 6 C56.66 6 57.32 6 58 6 C58 6.66 58 7.32 58 8 C54.25 9.125 54.25 9.125 52 8 C52 7.34 52 6.68 52 6 C42.65741704 4.87001156 33.39146903 4.90091064 24 5 C23.34 6.65 22.68 8.3 22 10 C19.525 9.505 19.525 9.505 17 9 C17.33 7.68 17.66 6.36 18 5 C12.39 4.67 6.78 4.34 1 4 C0.67 2.68 0.34 1.36 0 0 Z " fill="#256132" transform="translate(100,119)"/>
<path d="M0 0 C5.64166991 -0.04940499 11.28321413 -0.08572193 16.92504883 -0.10986328 C18.84466749 -0.11992639 20.76427081 -0.13357816 22.68383789 -0.15087891 C25.44160752 -0.17511364 28.19917464 -0.18647992 30.95703125 -0.1953125 C32.24623222 -0.21079636 32.24623222 -0.21079636 33.56147766 -0.22659302 C34.36208115 -0.22674408 35.16268463 -0.22689514 35.98754883 -0.22705078 C36.6914827 -0.231492 37.39541656 -0.23593323 38.12068176 -0.24050903 C40 0 40 0 43 2 C43.33 1.34 43.66 0.68 44 0 C44.99 0.66 45.98 1.32 47 2 C47.66 1.67 48.32 1.34 49 1 C50.87379605 0.92966231 52.75001102 0.9156978 54.625 0.9375 C56.12933594 0.95103516 56.12933594 0.95103516 57.6640625 0.96484375 C58.43492187 0.97644531 59.20578125 0.98804688 60 1 C60.495 2.485 60.495 2.485 61 4 C59.74703125 4.04898438 58.4940625 4.09796875 57.203125 4.1484375 C55.55206179 4.22348583 53.90102119 4.29903277 52.25 4.375 C51.0125 4.42140625 51.0125 4.42140625 49.75 4.46875 C48.95078125 4.50742188 48.1515625 4.54609375 47.328125 4.5859375 C46.22839355 4.63306885 46.22839355 4.63306885 45.10644531 4.68115234 C42.75077082 5.03772523 41.06549409 5.83662883 39 7 C38.505 5.515 38.505 5.515 38 4 C25.46 3.67 12.92 3.34 0 3 C0 2.01 0 1.02 0 0 Z " fill="#235E30" transform="translate(92,150)"/>
<path d="M0 0 C6.49616668 -0.02532428 12.99232066 -0.04285601 19.48852539 -0.05493164 C21.69914221 -0.059965 23.90975569 -0.06679217 26.12036133 -0.07543945 C29.295093 -0.08754859 32.46978072 -0.09323825 35.64453125 -0.09765625 C37.13059624 -0.10539818 37.13059624 -0.10539818 38.64668274 -0.11329651 C39.56741074 -0.11337204 40.48813873 -0.11344757 41.43676758 -0.11352539 C42.65255241 -0.11685631 42.65255241 -0.11685631 43.89289856 -0.12025452 C46 0 46 0 49 1 C48.67 2.32 48.34 3.64 48 5 C32.82 4.67 17.64 4.34 2 4 C1.34 2.68 0.68 1.36 0 0 Z " fill="#252424" transform="translate(97,49)"/>
<path d="M0 0 C15.84 0 31.68 0 48 0 C47.67 0.99 47.34 1.98 47 3 C44.19462697 3.93512434 42.51834636 4.12182907 39.62036133 4.11352539 C38.73967484 4.11344986 37.85898834 4.11337433 36.95161438 4.11329651 C36.00465195 4.10813522 35.05768951 4.10297394 34.08203125 4.09765625 C33.10965012 4.0962413 32.13726898 4.09482635 31.13542175 4.09336853 C28.02774996 4.08776817 24.92015004 4.07521562 21.8125 4.0625 C19.70638125 4.05748505 17.60026137 4.05292213 15.49414062 4.04882812 C10.32939936 4.03779862 5.16471187 4.02053375 0 4 C0 2.66666667 0 1.33333333 0 0 Z " fill="#232423" transform="translate(82,204)"/>
<path d="M0 0 C2.875 1.0625 2.875 1.0625 4.875 3.0625 C6.16800155 7.99941501 5.64479659 12.10158866 4.875 17.0625 C4.545 17.0625 4.215 17.0625 3.875 17.0625 C3.82601562 16.14726563 3.77703125 15.23203125 3.7265625 14.2890625 C3.61441406 12.50628906 3.61441406 12.50628906 3.5 10.6875 C3.39558594 8.91246094 3.39558594 8.91246094 3.2890625 7.1015625 C3.17282654 3.95687681 3.17282654 3.95687681 0.875 2.0625 C-2.0616021 1.8165591 -4.91062112 1.68874748 -7.8515625 1.6484375 C-9.14578629 1.61938828 -9.14578629 1.61938828 -10.46615601 1.5897522 C-13.22733616 1.52987796 -15.98855784 1.48354002 -18.75 1.4375 C-20.61981005 1.39932741 -22.48960238 1.36027611 -24.359375 1.3203125 C-28.94777309 1.22417008 -33.53625351 1.14016834 -38.125 1.0625 C-38.125 2.3825 -38.125 3.7025 -38.125 5.0625 C-44.725 4.4025 -51.325 3.7425 -58.125 3.0625 C-58.125 2.0725 -58.125 1.0825 -58.125 0.0625 C-59.115 -0.2675 -60.105 -0.5975 -61.125 -0.9375 C-59.83287598 -0.93226318 -58.54075195 -0.92702637 -57.20947266 -0.92163086 C-52.42741587 -0.90356633 -47.64536211 -0.89206264 -42.86328125 -0.88256836 C-40.79133599 -0.87753148 -38.7193943 -0.87070175 -36.64746094 -0.86206055 C-33.67381918 -0.84996679 -30.70022431 -0.84426533 -27.7265625 -0.83984375 C-26.79631256 -0.83468246 -25.86606262 -0.82952118 -24.90762329 -0.82420349 C-23.61651138 -0.82409019 -23.61651138 -0.82409019 -22.29931641 -0.82397461 C-21.16014267 -0.82064369 -21.16014267 -0.82064369 -19.99795532 -0.81724548 C-6.35598766 -1.69313836 -6.35598766 -1.69313836 0 0 Z " fill="#242423" transform="translate(204.125,49.9375)"/>
<path d="M0 0 C0.33 0.99 0.66 1.98 1 3 C3.97065509 2.65772428 3.97065509 2.65772428 7 2 C7.33 1.34 7.66 0.68 8 0 C7.67 1.65 7.34 3.3 7 5 C6.34 5 5.68 5 5 5 C5 9.29 5 13.58 5 18 C4.34 18 3.68 18 3 18 C2.67 20.64 2.34 23.28 2 26 C1.195625 26.268125 0.39125 26.53625 -0.4375 26.8125 C-1.283125 27.204375 -2.12875 27.59625 -3 28 C-3.33 28.99 -3.66 29.98 -4 31 C-4.66 31 -5.32 31 -6 31 C-6.33 32.32 -6.66 33.64 -7 35 C-6.67 32.36 -6.34 29.72 -6 27 C-5.34 27 -4.68 27 -4 27 C-4.02320313 26.39671875 -4.04640625 25.7934375 -4.0703125 25.171875 C-4.08835938 24.37265625 -4.10640625 23.5734375 -4.125 22.75 C-4.14820313 21.96109375 -4.17140625 21.1721875 -4.1953125 20.359375 C-4 18 -4 18 -3.0625 16.15625 C-1.55693348 13.10083559 -1.31135089 10.11613547 -0.875 6.75 C-0.70742187 5.48671875 -0.53984375 4.2234375 -0.3671875 2.921875 C-0.24601563 1.95765625 -0.12484375 0.9934375 0 0 Z " fill="#272C28" transform="translate(178,138)"/>
<path d="M0 0 C1.16843838 3.50531515 0.89701835 5.83268772 0.5625 9.5 C0.13940737 14.24364094 0.13940737 14.24364094 0 19 C-0.66 19 -1.32 19 -2 19 C-2.66 17.02 -3.32 15.04 -4 13 C-4.45375 14.19625 -4.9075 15.3925 -5.375 16.625 C-5.6534375 17.3571875 -5.931875 18.089375 -6.21875 18.84375 C-6.84723202 20.57836039 -7.37754464 22.3483737 -7.875 24.125 C-9.29110923 27.7439458 -11.45567837 30.08333862 -14 33 C-15.03655068 34.64418383 -16.05184571 36.30330285 -17 38 C-17.84291332 35.60996728 -18.15384404 34.4145692 -17.2578125 32 C-16.88398437 31.34 -16.51015625 30.68 -16.125 30 C-14.94600518 27.88935193 -14.04053585 26.17461595 -13.4921875 23.8125 C-13.32976562 23.214375 -13.16734375 22.61625 -13 22 C-12.34 21.67 -11.68 21.34 -11 21 C-10.35039425 19.10554512 -10.35039425 19.10554512 -9.921875 16.81640625 C-9.72980469 15.97142578 -9.53773437 15.12644531 -9.33984375 14.25585938 C-8.94813383 12.46722367 -8.57039699 10.67546788 -8.20703125 8.88085938 C-7.63782074 6.43846263 -7.09074289 4.25980431 -6 2 C-2.828125 0.40234375 -2.828125 0.40234375 0 0 Z " fill="#549663" transform="translate(108,69)"/>
<path d="M0 0 C14.19 0 28.38 0 43 0 C42.67 0.66 42.34 1.32 42 2 C39.32299805 2.50244141 39.32299805 2.50244141 35.76171875 2.8515625 C34.46556641 2.98046875 33.16941406 3.109375 31.83398438 3.2421875 C31.15166748 3.3050293 30.46935059 3.36787109 29.76635742 3.43261719 C27.73292008 3.62079671 25.70156378 3.82468443 23.66992188 4.03125 C15.75321417 4.79449383 7.95225005 5.18539333 0 5 C0 3.35 0 1.7 0 0 Z " fill="#FAFCF9" transform="translate(98,53)"/>
<path d="M0 0 C2.31 0.33 4.62 0.66 7 1 C7.19412181 2.47831221 7.38012131 3.95769316 7.5625 5.4375 C7.66691406 6.26121094 7.77132812 7.08492187 7.87890625 7.93359375 C7.91886719 8.61550781 7.95882812 9.29742187 8 10 C7.67 10.33 7.34 10.66 7 11 C7.99 12.485 7.99 12.485 9 14 C8.71674268 18.53211719 8.31035357 19.68964643 5 23 C5 19.04 5 15.08 5 11 C2.64214682 11.89335797 2.64214682 11.89335797 1.875 15.0625 C1.58625 16.031875 1.2975 17.00125 1 18 C-0.43088528 15.13822943 0.40008303 13.06624227 1 10 C-0.65 11.65 -2.3 13.3 -4 15 C-3.40546697 4.44191344 -3.40546697 4.44191344 0 0 Z " fill="#5E9E6D" transform="translate(116,158)"/>
<path d="M0 0 C0.28875 0.639375 0.5775 1.27875 0.875 1.9375 C1.82823451 4.15206079 1.82823451 4.15206079 4 5 C4.60107745 8.31726705 4.74433485 11.63374215 5 15 C-0.61 15 -6.22 15 -12 15 C-12 13.68 -12 12.36 -12 11 C-11.1028125 10.87625 -11.1028125 10.87625 -10.1875 10.75 C-7.400657 9.79451097 -6.67123014 8.3549152 -5 6 C-4.34 6 -3.68 6 -3 6 C-2.690625 5.195625 -2.38125 4.39125 -2.0625 3.5625 C-1 1 -1 1 0 0 Z " fill="#6DA87B" transform="translate(154,189)"/>
<path d="M0 0 C7.59 0 15.18 0 23 0 C20.39680887 1.73546076 18.47732763 2.65175233 15.5625 3.625 C14.80066406 3.88539062 14.03882813 4.14578125 13.25390625 4.4140625 C11 5 11 5 7 5 C7.020625 6.27875 7.04125 7.5575 7.0625 8.875 C7.125 12.75 7.125 12.75 6 15 C4.68 14.67 3.36 14.34 2 14 C1.66468585 12.04200486 1.33180857 10.08359226 1 8.125 C0.814375 7.03445312 0.62875 5.94390625 0.4375 4.8203125 C0 2 0 2 0 0 Z " fill="#C7E1CC" transform="translate(176,55)"/>
<path d="M0 0 C6.93 1.65 13.86 3.3 21 5 C21.33 4.01 21.66 3.02 22 2 C24.02054804 3.64169528 26.02043058 5.30911778 28 7 C28 7.33 28 7.66 28 8 C24.85418698 8.02948491 21.70841037 8.04695916 18.5625 8.0625 C17.68400391 8.07087891 16.80550781 8.07925781 15.90039062 8.08789062 C10.18216923 8.10899107 4.67199185 7.73280057 -1 7 C-1.33 5.68 -1.66 4.36 -2 3 C-1.34 3 -0.68 3 0 3 C0 2.01 0 1.02 0 0 Z " fill="#EAF4ED" transform="translate(65,195)"/>
<path d="M0 0 C0.33 0 0.66 0 1 0 C1 4.29 1 8.58 1 13 C0.34 13 -0.32 13 -1 13 C-0.91298828 14.12148437 -0.91298828 14.12148437 -0.82421875 15.265625 C-0.4524675 23.38042375 -0.4524675 23.38042375 -3.375 26.6875 C-6 28 -6 28 -8 28 C-8 31.63 -8 35.26 -8 39 C-8.33 39 -8.66 39 -9 39 C-9.33 42.63 -9.66 46.26 -10 50 C-10.33 50 -10.66 50 -11 50 C-11.35135649 36.27757714 -11.35135649 36.27757714 -9.578125 29.640625 C-8.16879125 23.20339789 -7.70638993 16.54537907 -7 10 C-6.67 10 -6.34 10 -6 10 C-5.67 11.98 -5.34 13.96 -5 16 C-2.84979181 15.16206673 -2.84979181 15.16206673 -1.9375 13.0625 C-0.62215095 8.76569309 -0.32963785 4.46746033 0 0 Z " fill="#654E39" transform="translate(204,102)"/>
<path d="M0 0 C-0.35338886 3.53388856 -0.69899495 6.41899025 -2.34375 9.59375 C-4.51070738 14.05032273 -5.81506814 18.62401368 -7.1875 23.375 C-7.46013672 24.30183594 -7.73277344 25.22867188 -8.01367188 26.18359375 C-8.68083879 28.4543022 -9.34279062 30.72639355 -10 33 C-10.66 33 -11.32 33 -12 33 C-12 29.7 -12 26.4 -12 23 C-11.34 23 -10.68 23 -10 23 C-9.87625 21.948125 -9.7525 20.89625 -9.625 19.8125 C-9.41762312 18.20820941 -9.20912242 16.60406399 -9 15 C-8.79890625 13.33904297 -8.79890625 13.33904297 -8.59375 11.64453125 C-8.4390625 10.48308594 -8.284375 9.32164063 -8.125 8.125 C-7.98320313 7.01382813 -7.84140625 5.90265625 -7.6953125 4.7578125 C-6.53370526 0.15053884 -4.50850616 0 0 0 Z " fill="#EDF6EE" transform="translate(99,77)"/>
<path d="M0 0 C8.106437 -0.31379756 16.11047124 0.21857404 24.1875 0.875 C25.227854 0.95347168 26.26820801 1.03194336 27.34008789 1.11279297 C28.31453857 1.19674316 29.28898926 1.28069336 30.29296875 1.3671875 C31.1749292 1.44050293 32.05688965 1.51381836 32.96557617 1.58935547 C33.63693604 1.72486816 34.3082959 1.86038086 35 2 C36.60725635 5.21451269 36.05748185 8.43612536 36 12 C35.34 12 34.68 12 34 12 C33.505 10.02 33.505 10.02 33 8 C31.35 8 29.7 8 28 8 C28.33 6.68 28.66 5.36 29 4 C28.34257812 4.02320313 27.68515625 4.04640625 27.0078125 4.0703125 C17.55883708 4.24956136 8.35740802 3.16447744 -1 2 C-0.67 1.34 -0.34 0.68 0 0 Z " fill="#82A98C" transform="translate(141,53)"/>
<path d="M0 0 C0.99 0.33 1.98 0.66 3 1 C4.88670084 5.28795645 4.7373674 10.71205429 3.31640625 15.12109375 C1.08237106 20.02484733 -1.66562121 22.84772451 -6 26 C-5.31465992 20.194303 -3.96776988 14.69920838 -2.4375 9.0625 C-2.20353516 8.18787109 -1.96957031 7.31324219 -1.72851562 6.41210938 C-1.15594751 4.27374275 -0.57970405 2.13644097 0 0 Z " fill="#383738" transform="translate(70,147)"/>
<path d="M0 0 C0.33 0 0.66 0 1 0 C1.33 1.65 1.66 3.3 2 5 C5.02704094 6.20339489 5.02704094 6.20339489 8.5 5.875 C12 6 12 6 13.9375 7.5 C14.288125 7.995 14.63875 8.49 15 9 C15.66 8.67 16.32 8.34 17 8 C17.33 7.01 17.66 6.02 18 5 C19.98 4.67 21.96 4.34 24 4 C23.67 4.66 23.34 5.32 23 6 C21.68 6 20.36 6 19 6 C19 8.31 19 10.62 19 13 C15.33694766 13.74926071 12.57644848 14.2380014 9 13 C9 12.01 9 11.02 9 10 C8.37351563 9.96261719 7.74703125 9.92523438 7.1015625 9.88671875 C6.28429687 9.82097656 5.46703125 9.75523438 4.625 9.6875 C3.81289062 9.62949219 3.00078125 9.57148437 2.1640625 9.51171875 C0 9 0 9 -2 6 C-2 4.68 -2 3.36 -2 2 C-1.34 2 -0.68 2 0 2 C0 1.34 0 0.68 0 0 Z " fill="#5BA06A" transform="translate(130,65)"/>
<path d="M0 0 C1.38100271 4.14300814 -0.24120613 6.7703162 -1.8125 10.625 C-4.06654699 16.39182251 -5.88627361 21.90004905 -7 28 C-7.49554558 30.31345863 -7.99596186 32.6258768 -8.5 34.9375 C-9.71459261 40.61587461 -10.88392899 46.30147271 -12 52 C-13.5625 50.75 -13.5625 50.75 -15 49 C-14.74609375 47.09375 -14.74609375 47.09375 -14 45 C-13.52666786 42.740734 -13.05854459 40.48058855 -12.59765625 38.21875 C-12 36 -12 36 -10.97265625 34.171875 C-9.57900366 31.05994391 -9.56330089 28.139416 -9.375 24.75 C-9.30023438 23.48671875 -9.22546875 22.2234375 -9.1484375 20.921875 C-9.09945312 19.95765625 -9.05046875 18.9934375 -9 18 C-8.01 18 -7.02 18 -6 18 C-6.66 17.67 -7.32 17.34 -8 17 C-7.67 16.01 -7.34 15.02 -7 14 C-6.34 14 -5.68 14 -5 14 C-4.9175 13.360625 -4.835 12.72125 -4.75 12.0625 C-3.70479628 7.79458483 -1.85908174 3.96892333 0 0 Z " fill="#558960" transform="translate(193,78)"/>
<path d="M0 0 C0.93423645 3.01031744 1.04449911 3.86650268 0 7 C-0.66 7 -1.32 7 -2 7 C-1.97679688 7.67546875 -1.95359375 8.3509375 -1.9296875 9.046875 C-1.90261719 10.38492188 -1.90261719 10.38492188 -1.875 11.75 C-1.85179688 12.63171875 -1.82859375 13.5134375 -1.8046875 14.421875 C-2.01279305 17.16886832 -2.43741301 18.73836094 -4 21 C-7.125 21.75 -7.125 21.75 -10 22 C-10 20.68 -10 19.36 -10 18 C-8.35 17.67 -6.7 17.34 -5 17 C-5.33 16.01 -5.66 15.02 -6 14 C-6.99 14.33 -7.98 14.66 -9 15 C-9.3190184 7.98159509 -9.3190184 7.98159509 -7 5 C-4.5 4.5 -4.5 4.5 -2 4 C-0.63979849 2.03241727 -0.63979849 2.03241727 0 0 Z " fill="#2B2C2B" transform="translate(94,72)"/>
<path d="M0 0 C0.70125 0.144375 1.4025 0.28875 2.125 0.4375 C5.07556141 1.01478375 8.03270151 1.51695141 11 2 C11 2.99 11 3.98 11 5 C14.465 4.505 14.465 4.505 18 4 C18 5.32 18 6.64 18 8 C10.90272572 8.10808032 4.03905044 7.93854006 -3 7 C-2.01 4.69 -1.02 2.38 0 0 Z " fill="#BBD7C2" transform="translate(124,196)"/>
<path d="M0 0 C0 0.99 0 1.98 0 3 C-8.58077055 3.24911914 -16.58173087 2.69882188 -25 1 C-25.66 2.65 -26.32 4.3 -27 6 C-27.66 5.67 -28.32 5.34 -29 5 C-28.625 2.0625 -28.625 2.0625 -28 -1 C-20.46481176 -4.76759412 -8.0770145 -1.1223643 0 0 Z " fill="#276133" transform="translate(165,101)"/>
<path d="M0 0 C0.33 0 0.66 0 1 0 C1.02685412 2.31243792 1.04632841 4.6249627 1.0625 6.9375 C1.07410156 8.22527344 1.08570313 9.51304687 1.09765625 10.83984375 C1 14 1 14 0 15 C-6.90868856 15.53915355 -17.11626749 16.15979115 -22.78125 11.55078125 C-24 10 -24 10 -24 8 C-17.73 8.66 -11.46 9.32 -5 10 C-5.99 10.99 -6.98 11.98 -8 13 C-5.36 13 -2.72 13 0 13 C0 8.71 0 4.42 0 0 Z " fill="#483019" transform="translate(194,191)"/>
<path d="M0 0 C1.50578294 4.51734881 -0.05063832 8.11911083 -1.25 12.625 C-1.46785156 13.50929688 -1.68570313 14.39359375 -1.91015625 15.3046875 C-2.13058594 16.14515625 -2.35101563 16.985625 -2.578125 17.8515625 C-2.77825195 18.62322754 -2.97837891 19.39489258 -3.18457031 20.18994141 C-3.45366211 20.78726074 -3.72275391 21.38458008 -4 22 C-4.99 22.33 -5.98 22.66 -7 23 C-7.12375 24.134375 -7.2475 25.26875 -7.375 26.4375 C-7.58125 27.613125 -7.7875 28.78875 -8 30 C-8.66 30.33 -9.32 30.66 -10 31 C-8.46912917 24.38794087 -6.88055212 18.1539068 -4 12 C-3.67 11.01 -3.34 10.02 -3 9 C-4.65 9.33 -6.3 9.66 -8 10 C-7.11917098 4.5388601 -7.11917098 4.5388601 -6 2 C-2.875 0.5 -2.875 0.5 0 0 Z " fill="#7DAC87" transform="translate(102,68)"/>
<path d="M0 0 C0.33 0 0.66 0 1 0 C1 3.96 1 7.92 1 12 C-0.98 12 -2.96 12 -5 12 C-5.49113281 12.52207031 -5.98226562 13.04414063 -6.48828125 13.58203125 C-7.23658203 14.28392578 -7.23658203 14.28392578 -8 15 C-10.91796875 14.63671875 -10.91796875 14.63671875 -14.1875 13.6875 C-15.27417969 13.38199219 -16.36085938 13.07648438 -17.48046875 12.76171875 C-18.31191406 12.51035156 -19.14335938 12.25898438 -20 12 C-20.33 10.68 -20.66 9.36 -21 8 C-20.01 7.67 -19.02 7.34 -18 7 C-17.34 7.66 -16.68 8.32 -16 9 C-14.09291157 9.91428339 -14.09291157 9.91428339 -12 10 C-11.55914062 9.49210938 -11.11828125 8.98421875 -10.6640625 8.4609375 C-9 7 -9 7 -6.73828125 7.14453125 C-4.4921875 7.76302083 -2.24609375 8.38151042 0 9 C0 6.03 0 3.06 0 0 Z " fill="#629C71" transform="translate(86,184)"/>
<path d="M0 0 C1.35874007 4.0762202 -0.00339648 6.89938027 -1.3125 10.8125 C-1.53873047 11.51181641 -1.76496094 12.21113281 -1.99804688 12.93164062 C-2.65572916 14.95775694 -3.32546058 16.97944089 -4 19 C-4.36480469 20.09699219 -4.72960937 21.19398438 -5.10546875 22.32421875 C-5.54826172 23.64873047 -5.54826172 23.64873047 -6 25 C-6.33 25.99 -6.66 26.98 -7 28 C-7.33 28 -7.66 28 -8 28 C-8 23.38 -8 18.76 -8 14 C-7.34 14 -6.68 14 -6 14 C-5.98582031 13.24074219 -5.97164062 12.48148438 -5.95703125 11.69921875 C-5.81409412 8.72071806 -5.61162773 5.92030703 -5 3 C-2.4375 0.8125 -2.4375 0.8125 0 0 Z " fill="#D6E3D9" transform="translate(194,113)"/>
<path d="M0 0 C0.66 0.99 1.32 1.98 2 3 C2.33 3.33 2.66 3.66 3 4 C3.33 4.66 3.66 5.32 4 6 C4.66 6.66 5.32 7.32 6 8 C5.34 8 4.68 8 4 8 C4 10.97 4 13.94 4 17 C3.67 16.34 3.34 15.68 3 15 C1.02 15.66 -0.96 16.32 -3 17 C-3 18.98 -3 20.96 -3 23 C-3.33 23 -3.66 23 -4 23 C-4.65720455 14.94924431 -2.22928846 7.64327471 0 0 Z " fill="#3E3E3F" transform="translate(76,118)"/>
<path d="M0 0 C2.875 1.0625 2.875 1.0625 4.875 3.0625 C6.16800155 7.99941501 5.64479659 12.10158866 4.875 17.0625 C4.545 17.0625 4.215 17.0625 3.875 17.0625 C3.82601562 16.14726563 3.77703125 15.23203125 3.7265625 14.2890625 C3.65179688 13.10054687 3.57703125 11.91203125 3.5 10.6875 C3.39558594 8.91246094 3.39558594 8.91246094 3.2890625 7.1015625 C3.17282654 3.95687681 3.17282654 3.95687681 0.875 2.0625 C-1.0618613 1.7331462 -1.0618613 1.7331462 -3.29931641 1.74365234 C-4.16005768 1.72378265 -5.02079895 1.70391296 -5.90762329 1.68344116 C-6.83787323 1.67188995 -7.76812317 1.66033875 -8.7265625 1.6484375 C-10.15396255 1.61938828 -10.15396255 1.61938828 -11.61019897 1.5897522 C-14.65670747 1.52985868 -17.70325354 1.48353205 -20.75 1.4375 C-22.8125167 1.39932921 -24.8750173 1.36027802 -26.9375 1.3203125 C-31.99986966 1.22414914 -37.06231395 1.14015437 -42.125 1.0625 C-42.125 0.7325 -42.125 0.4025 -42.125 0.0625 C-41.40844238 0.03744385 -40.69188477 0.0123877 -39.95361328 -0.01342773 C-36.71888486 -0.12919751 -33.48446159 -0.25200969 -30.25 -0.375 C-29.12207031 -0.41431641 -27.99414062 -0.45363281 -26.83203125 -0.49414062 C-25.75566406 -0.53603516 -24.67929688 -0.57792969 -23.5703125 -0.62109375 C-22.07781982 -0.67608032 -22.07781982 -0.67608032 -20.55517578 -0.73217773 C-7.03631726 -1.87436781 -7.03631726 -1.87436781 0 0 Z " fill="#9AA09A" transform="translate(204.125,49.9375)"/>
<path d="M0 0 C0 3.11227195 -0.45627049 5.94152152 -1 9 C-1.99 8.67 -2.98 8.34 -4 8 C-4.226875 8.804375 -4.45375 9.60875 -4.6875 10.4375 C-5.3371875 11.7059375 -5.3371875 11.7059375 -6 13 C-7.65 13.33 -9.3 13.66 -11 14 C-10.67 10.37 -10.34 6.74 -10 3 C-5.05 1.515 -5.05 1.515 0 0 Z " fill="#75A981" transform="translate(193,57)"/>
<path d="M0 0 C1.56992906 4.03995078 0.47955691 7.78961826 -0.375 11.875 C-0.65414286 13.26812967 -0.9327963 14.6613575 -1.2109375 16.0546875 C-1.3459668 16.71952148 -1.48099609 17.38435547 -1.62011719 18.06933594 C-2.13844094 20.70359316 -2.57618836 23.34909974 -3 26 C-3.66 26 -4.32 26 -5 26 C-5.08132642 22.95778935 -5.14065374 19.9177762 -5.1875 16.875 C-5.21263672 16.0190625 -5.23777344 15.163125 -5.26367188 14.28125 C-5.32355622 9.09127372 -4.95205194 5.47453877 -2 1 C-1.34 0.67 -0.68 0.34 0 0 Z " fill="#7DA586" transform="translate(172,161)"/>
<path d="M0 0 C11.22 0 22.44 0 34 0 C34 0.33 34 0.66 34 1 C33.25838623 1.01458252 32.51677246 1.02916504 31.75268555 1.04418945 C28.39709369 1.11859457 25.04250506 1.21528006 21.6875 1.3125 C20.52025391 1.33505859 19.35300781 1.35761719 18.15039062 1.38085938 C17.03212891 1.41630859 15.91386719 1.45175781 14.76171875 1.48828125 C13.2142395 1.52755737 13.2142395 1.52755737 11.63549805 1.56762695 C8.61170335 2.06370295 8.0042208 2.81488248 6 5 C3.35003674 5.2172101 0.94923442 5.28351554 -1.6875 5.1875 C-2.38939453 5.17396484 -3.09128906 5.16042969 -3.81445312 5.14648438 C-5.54329829 5.11120182 -7.27174765 5.05739583 -9 5 C-9 4.67 -9 4.34 -9 4 C-7.35 4 -5.7 4 -4 4 C-3.67 3.34 -3.34 2.68 -3 2 C-2.34 2 -1.68 2 -1 2 C-0.67 1.34 -0.34 0.68 0 0 Z " fill="#404742" transform="translate(130,204)"/>
<path d="M0 0 C2.64 0 5.28 0 8 0 C8 1.32 8 2.64 8 4 C7.34 4 6.68 4 6 4 C6 4.66 6 5.32 6 6 C5.34 6 4.68 6 4 6 C4 6.66 4 7.32 4 8 C3.34 8 2.68 8 2 8 C1.34 9.65 0.68 11.3 0 13 C-0.66 13 -1.32 13 -2 13 C-2 9.7 -2 6.4 -2 3 C-1.34 3 -0.68 3 0 3 C0 2.01 0 1.02 0 0 Z " fill="#73AC81" transform="translate(152,86)"/>
<path d="M0 0 C0.66 0 1.32 0 2 0 C1.42701169 8.71337403 -0.24022218 14.97100897 -7 21 C-7.66 20.67 -8.32 20.34 -9 20 C-8.54625 19.154375 -8.0925 18.30875 -7.625 17.4375 C-5.89512318 14.02241849 -5.89512318 14.02241849 -4.9375 10.25 C-4 7 -4 7 -2 5 C-1.29289322 3.35008418 -0.62056011 1.68437744 0 0 Z " fill="#4C935C" transform="translate(111,165)"/>
<path d="M0 0 C0.66 0 1.32 0 2 0 C2.19335563 5.51063545 1.70215337 9.69328656 0 15 C-0.35371498 16.66246041 -0.69595322 18.32774271 -1 20 C-1.99 20 -2.98 20 -4 20 C-4 22.97 -4 25.94 -4 29 C-1.525 29.99 -1.525 29.99 1 31 C0.01 31.66 -0.98 32.32 -2 33 C-4.015625 31.421875 -4.015625 31.421875 -6 29 C-6.171875 25.765625 -6.171875 25.765625 -5.75 22.25 C-5.62109375 21.07953125 -5.4921875 19.9090625 -5.359375 18.703125 C-5.24078125 17.81109375 -5.1221875 16.9190625 -5 16 C-4.34 16 -3.68 16 -3 16 C-2.87625 15.21625 -2.7525 14.4325 -2.625 13.625 C-1.83873576 9.0646674 -0.92299584 4.53432907 0 0 Z " fill="#4D885D" transform="translate(73,162)"/>
<path d="M0 0 C0.33 0 0.66 0 1 0 C1.62817259 10.12055838 1.62817259 10.12055838 -0.875 13.625 C-3 15 -3 15 -5 16 C-5.33 26.23 -5.66 36.46 -6 47 C-6.33 47 -6.66 47 -7 47 C-7.02509621 42.68074908 -7.04304322 38.36153906 -7.05493164 34.04223633 C-7.05989824 32.57901264 -7.06667378 31.11579375 -7.07543945 29.65258789 C-7.12950977 20.381118 -6.88831598 11.24068949 -6 2 C-5.67 2 -5.34 2 -5 2 C-4.67 4.97 -4.34 7.94 -4 11 C-3.34 11 -2.68 11 -2 11 C-1.34 7.37 -0.68 3.74 0 0 Z " fill="#7E6957" transform="translate(197,153)"/>
<path d="M0 0 C2.45933991 0.11369211 4.9167909 0.24042651 7.375 0.375 C8.07367188 0.4059375 8.77234375 0.436875 9.4921875 0.46875 C14.7734375 0.7734375 14.7734375 0.7734375 17 3 C15 5 15 5 12.13671875 5.23046875 C10.99847656 5.21628906 9.86023438 5.20210937 8.6875 5.1875 C6.99173828 5.17783203 6.99173828 5.17783203 5.26171875 5.16796875 C2.39143692 5.02015783 -0.20818772 4.65474022 -3 4 C-2.34 3.67 -1.68 3.34 -1 3 C-0.67 2.01 -0.34 1.02 0 0 Z " fill="#242525" transform="translate(67,203)"/>
<path d="M0 0 C1.18916016 0.01353516 1.18916016 0.01353516 2.40234375 0.02734375 C4.35169281 0.05082988 6.30088575 0.08669863 8.25 0.125 C7.29296875 2.109375 7.29296875 2.109375 5.25 4.125 C2.34705206 4.64539056 -0.50000457 4.50030743 -3.4375 4.375 C-4.23478516 4.35695312 -5.03207031 4.33890625 -5.85351562 4.3203125 C-7.81952449 4.27322247 -9.78491494 4.20147899 -11.75 4.125 C-12.08 3.465 -12.41 2.805 -12.75 2.125 C-8.77389214 -0.58986934 -4.61098023 -0.09940753 0 0 Z " fill="#242524" transform="translate(147.75,204.875)"/>
<path d="M0 0 C2.86724686 0.57344937 3.8614515 0.8614515 6 3 C6.99 3.66 7.98 4.32 9 5 C9 5.66 9 6.32 9 7 C9.66 6.34 10.32 5.68 11 5 C11.66 4.67 12.32 4.34 13 4 C12.75 5.875 12.75 5.875 12 8 C9.9375 9.25 9.9375 9.25 8 10 C7.34 9.34 6.68 8.68 6 8 C3.57284794 7.32059533 3.57284794 7.32059533 0.875 6.875 C-0.49011719 6.62363281 -0.49011719 6.62363281 -1.8828125 6.3671875 C-2.58148438 6.24601562 -3.28015625 6.12484375 -4 6 C-4.33 5.01 -4.66 4.02 -5 3 C-4.34 3 -3.68 3 -3 3 C-2.67 2.34 -2.34 1.68 -2 1 C-1.34 1.66 -0.68 2.32 0 3 C0 2.01 0 1.02 0 0 Z " fill="#235C2E" transform="translate(127,100)"/>
<path d="M0 0 C4.04622502 0.36980013 4.04622502 0.36980013 7 -2 C9.6875 -1.625 9.6875 -1.625 12 -1 C10.02 1.31 8.04 3.62 6 6 C-1.5 3 -1.5 3 -9 0 C-5.34410496 -2.43726336 -3.86462384 -1.73908073 0 0 Z " fill="#559663" transform="translate(139,195)"/>
<path d="M0 0 C2.79387762 0.61620855 5.58480926 1.24249695 8.375 1.875 C9.1690625 2.04902344 9.963125 2.22304687 10.78125 2.40234375 C11.54179688 2.57636719 12.30234375 2.75039062 13.0859375 2.9296875 C13.7876709 3.08679199 14.4894043 3.24389648 15.21240234 3.40576172 C17 4 17 4 19 6 C13.348184 7.10579009 7.6350488 7.44224284 2 6 C0 3 0 3 0 0 Z " fill="#C9E2CE" transform="translate(65,195)"/>
<path d="M0 0 C0.33 0 0.66 0 1 0 C2.125 7.75 2.125 7.75 1 10 C2.70840281 8.36587557 3.93453047 7.13093906 5 5 C5.66 5 6.32 5 7 5 C7 4.34 7 3.68 7 3 C7.66 3 8.32 3 9 3 C9.33 2.34 9.66 1.68 10 1 C10 4.63 10 8.26 10 12 C0.25 11.125 0.25 11.125 -2 10 C-1.34 6.7 -0.68 3.4 0 0 Z " fill="#519260" transform="translate(149,89)"/>
<path d="M0 0 C-1.65 3.96 -3.3 7.92 -5 12 C-5.99 12 -6.98 12 -8 12 C-9.21621622 4.7027027 -9.21621622 4.7027027 -8.25 1.5625 C-5.69322943 -1.63346321 -3.76259554 -0.94064888 0 0 Z " fill="#69A075" transform="translate(203,56)"/>
<path d="M0 0 C0.66 0.33 1.32 0.66 2 1 C1.62915225 7.35556317 0.60608162 12.13631635 -2 18 C-2.50668022 20.67546098 -2.76156031 23.28178753 -3 26 C-3.99 26 -4.98 26 -6 26 C-6.32711479 20.54808677 -5.40167892 17.80335784 -3 13 C-1.85721158 8.6965265 -0.91163226 4.35773151 0 0 Z " fill="#80A58A" transform="translate(86,109)"/>
<path d="M0 0 C0 0.66 0 1.32 0 2 C-2.81185594 2.33972801 -5.62428236 2.67190212 -8.4375 3 C-9.22060547 3.09539063 -10.00371094 3.19078125 -10.81054688 3.2890625 C-16.24375619 3.91511131 -21.53074263 4.08759571 -27 4 C-27.33 4.66 -27.66 5.32 -28 6 C-28 4.68 -28 3.36 -28 2 C-24.83402429 1.65988375 -21.6671312 1.32916813 -18.5 1 C-17.613125 0.90460937 -16.72625 0.80921875 -15.8125 0.7109375 C-10.50765526 0.16485054 -5.33262848 -0.0996753 0 0 Z " fill="#9DC1A7" transform="translate(126,56)"/>
<path d="M0 0 C0.33 0 0.66 0 1 0 C1.19491452 1.45736087 1.38069358 2.91594593 1.5625 4.375 C1.66691406 5.18710938 1.77132812 5.99921875 1.87890625 6.8359375 C2 9 2 9 1 11 C0.34 11 -0.32 11 -1 11 C-1.33 14.63 -1.66 18.26 -2 22 C-3.65 22 -5.3 22 -7 22 C-7 20.35 -7 18.7 -7 17 C-6.34 17.99 -5.68 18.98 -5 20 C-5 19.01 -5 18.02 -5 17 C-4.39613799 15.02832031 -3.74435718 13.07108348 -3.0625 11.125 C-1.76918316 7.42583572 -0.67700074 3.86246735 0 0 Z " fill="#60936C" transform="translate(166,182)"/>
<path d="M0 0 C-0.33 0.99 -0.66 1.98 -1 3 C-1.66 3 -2.32 3 -3 3 C-3 3.66 -3 4.32 -3 5 C-3.66 5 -4.32 5 -5 5 C-5 5.66 -5 6.32 -5 7 C-6.65 6.67 -8.3 6.34 -10 6 C-9.34 3.69 -8.68 1.38 -8 -1 C-3.375 -2.25 -3.375 -2.25 0 0 Z " fill="#77AC83" transform="translate(106,194)"/>
<path d="M0 0 C0.87454834 0.00523682 1.74909668 0.01047363 2.65014648 0.01586914 C3.59438477 0.0190918 4.53862305 0.02231445 5.51147461 0.02563477 C6.50469727 0.03401367 7.49791992 0.04239258 8.52124023 0.05102539 C9.51833008 0.05553711 10.51541992 0.06004883 11.54272461 0.06469727 C14.01478872 0.07652532 16.48673541 0.0930069 18.95874023 0.11352539 C15.93780809 3.13445754 12.39501951 2.58029373 8.33374023 2.73852539 C7.13104492 2.7965332 7.13104492 2.7965332 5.90405273 2.85571289 C3.92266468 2.9500647 1.94073378 3.03288754 -0.04125977 3.11352539 C-0.37125977 4.76352539 -0.70125977 6.41352539 -1.04125977 8.11352539 C-1.70125977 7.78352539 -2.36125977 7.45352539 -3.04125977 7.11352539 C-3.08380333 5.11397793 -3.08206759 3.11310903 -3.04125977 1.11352539 C-2.04125977 0.11352539 -2.04125977 0.11352539 0 0 Z " fill="#659871" transform="translate(129.041259765625,54.886474609375)"/>
<path d="M0 0 C0.33 0 0.66 0 1 0 C2.38575945 6.31290416 1.32221664 11.76669299 0 18 C-0.66 18 -1.32 18 -2 18 C-2.66 19.32 -3.32 20.64 -4 22 C-4.33161884 16.80463817 -3.50580433 13.03603647 -1.734375 8.15625 C-0.82090959 5.47416007 -0.35972088 2.80582285 0 0 Z " fill="#1E271E" transform="translate(169,181)"/>
<path d="M0 0 C2.97 0 5.94 0 9 0 C9.125 3.375 9.125 3.375 9 7 C8.34 7.66 7.68 8.32 7 9 C7 8.01 7 7.02 7 6 C4.03 5.505 4.03 5.505 1 5 C0.67 3.35 0.34 1.7 0 0 Z " fill="#4B915B" transform="translate(116,153)"/>
<path d="M0 0 C0.5534764 2.07553648 1 3.84365964 1 6 C1.99 5.67 2.98 5.34 4 5 C4.33 6.65 4.66 8.3 5 10 C4.195625 10.268125 3.39125 10.53625 2.5625 10.8125 C1.716875 11.204375 0.87125 11.59625 0 12 C-0.33 12.99 -0.66 13.98 -1 15 C-1.66 15 -2.32 15 -3 15 C-3.33 16.32 -3.66 17.64 -4 19 C-3.67 16.36 -3.34 13.72 -3 11 C-2.34 11 -1.68 11 -1 11 C-1.01160156 10.37351563 -1.02320313 9.74703125 -1.03515625 9.1015625 C-1.04417969 8.28429687 -1.05320313 7.46703125 -1.0625 6.625 C-1.07410156 5.81289062 -1.08570313 5.00078125 -1.09765625 4.1640625 C-1 2 -1 2 0 0 Z " fill="#303830" transform="translate(175,154)"/>
<path d="M0 0 C1.32 0 2.64 0 4 0 C4.375 2.6875 4.375 2.6875 4 6 C1.125 8.6875 1.125 8.6875 -2 11 C-2.66 11.99 -3.32 12.98 -4 14 C-3.33333333 10 -2.66666667 6 -2 2 C-1.34 2 -0.68 2 0 2 C0 1.34 0 0.68 0 0 Z " fill="#2A2C2B" transform="translate(75,133)"/>
<path d="M0 0 C1.80411967 2.75924185 2.0127245 3.88972103 1.625 7.25 C1.41875 8.1575 1.2125 9.065 1 10 C1.66 10 2.32 10 3 10 C3 12.31 3 14.62 3 17 C2.38125 16.814375 1.7625 16.62875 1.125 16.4375 C-1.04160178 15.76313824 -1.04160178 15.76313824 -3 17 C-2.88506243 15.10353002 -2.75760358 13.20781668 -2.625 11.3125 C-2.55539063 10.25675781 -2.48578125 9.20101562 -2.4140625 8.11328125 C-2.01239911 5.09322731 -1.25930981 2.75921946 0 0 Z " fill="#6DA27B" transform="translate(171,148)"/>
<path d="M0 0 C1.65 0 3.3 0 5 0 C5 0.99 5 1.98 5 3 C6.32 3.33 7.64 3.66 9 4 C9.12375 4.639375 9.2475 5.27875 9.375 5.9375 C9.58125 6.618125 9.7875 7.29875 10 8 C10.66 8.33 11.32 8.66 12 9 C3.5 8.01923077 3.5 8.01923077 1 6 C0.25 2.875 0.25 2.875 0 0 Z " fill="#61A170" transform="translate(165,57)"/>
<path d="M0 0 C0.99 0 1.98 0 3 0 C4.625 2.75 4.625 2.75 6 6 C5.1875 8.375 5.1875 8.375 4 10 C3.01 10 2.02 10 1 10 C0.34 11.32 -0.32 12.64 -1 14 C-0.67 9.38 -0.34 4.76 0 0 Z " fill="#545554" transform="translate(93,45)"/>
<path d="M0 0 C0.66 0 1.32 0 2 0 C2.33 1.32 2.66 2.64 3 4 C9.97761838 4.86147274 9.97761838 4.86147274 17 5 C17 5.66 17 6.32 17 7 C10.23405981 7.11381955 3.71162938 6.88021369 -3 6 C-2.01 4.02 -1.02 2.04 0 0 Z " fill="#DAEADD" transform="translate(124,197)"/>
<path d="M0 0 C5.28 0 10.56 0 16 0 C13.39457984 1.73694677 11.41657225 2.69100448 8.5 3.6875 C7.7265625 3.95949219 6.953125 4.23148438 6.15625 4.51171875 C4 5 4 5 1 4 C1.33 3.34 1.66 2.68 2 2 C1.01 2.33 0.02 2.66 -1 3 C-0.67 2.01 -0.34 1.02 0 0 Z " fill="#C7DDCC" transform="translate(183,55)"/>
<path d="M0 0 C0.66 0 1.32 0 2 0 C2.10655578 6.44070471 1.96205088 12.62641289 1 19 C0.67 19 0.34 19 0 19 C0 17.35 0 15.7 0 14 C-0.99 14 -1.98 14 -3 14 C-3.33 14.99 -3.66 15.98 -4 17 C-4 15.68 -4 14.36 -4 13 C-3.34 13 -2.68 13 -2 13 C-1.34 8.71 -0.68 4.42 0 0 Z " fill="#808E75" transform="translate(200,79)"/>
<path d="M0 0 C1.19882813 0.01450195 1.19882813 0.01450195 2.421875 0.02929688 C3.659375 0.06700195 3.659375 0.06700195 4.921875 0.10546875 C6.18257812 0.12577148 6.18257812 0.12577148 7.46875 0.14648438 C9.53673438 0.18173411 11.60438771 0.23553855 13.671875 0.29296875 C13.341875 0.95296875 13.011875 1.61296875 12.671875 2.29296875 C2.276875 2.78796875 2.276875 2.78796875 -8.328125 3.29296875 C-3.828125 -0.08203125 -3.828125 -0.08203125 0 0 Z " fill="#ECFBF0" transform="translate(127.328125,52.70703125)"/>
<path d="M0 0 C-0.99 0.495 -0.99 0.495 -2 1 C-1.97679688 1.64066406 -1.95359375 2.28132813 -1.9296875 2.94140625 C-1.81559137 8.40987096 -2.20208096 12.83098277 -4 18 C-4.33 18 -4.66 18 -5 18 C-5.09752461 12.53862186 -4.77249145 7.40744018 -4 2 C-5.65 2.33 -7.3 2.66 -9 3 C-9 2.34 -9 1.68 -9 1 C-6.04335481 -0.4783226 -3.25770263 -0.06032783 0 0 Z " fill="#67A776" transform="translate(112,68)"/>
<path d="M0 0 C-0.33 1.32 -0.66 2.64 -1 4 C-1.99 4 -2.98 4 -4 4 C-4 3.34 -4 2.68 -4 2 C-6.76565382 1.07811539 -8.38283702 0.88214778 -11.23046875 0.90234375 C-12.43413086 0.90717773 -12.43413086 0.90717773 -13.66210938 0.91210938 C-14.49548828 0.92048828 -15.32886719 0.92886719 -16.1875 0.9375 C-17.4549707 0.94426758 -17.4549707 0.94426758 -18.74804688 0.95117188 C-20.83206155 0.96294597 -22.91603977 0.9808811 -25 1 C-25 0.67 -25 0.34 -25 0 C-16.37215845 -2.77323478 -8.7595035 -1.39722142 0 0 Z " fill="#519361" transform="translate(164,57)"/>
<path d="M0 0 C0 3 0 3 -1 5 C-0.34 5 0.32 5 1 5 C1 5.66 1 6.32 1 7 C-1.64458379 8.32229189 -3.67761301 8.09677194 -6.625 8.0625 C-7.62789063 8.05347656 -8.63078125 8.04445312 -9.6640625 8.03515625 C-10.43492188 8.02355469 -11.20578125 8.01195312 -12 8 C-11.67 7.01 -11.34 6.02 -11 5 C-8.03 5.495 -8.03 5.495 -5 6 C-5 5.34 -5 4.68 -5 4 C-4.34 4 -3.68 4 -3 4 C-3 3.34 -3 2.68 -3 2 C-2.01 1.34 -1.02 0.68 0 0 Z " fill="#85B390" transform="translate(106,195)"/>
<path d="M0 0 C1.98 0.495 1.98 0.495 4 1 C3.67 1.845625 3.34 2.69125 3 3.5625 C1.84578682 6.93344101 1.84578682 6.93344101 2 10.3125 C2 14.76354417 1.09041031 18.70650942 0 23 C-0.33 23 -0.66 23 -1 23 C-1.1567564 15.28410183 -0.67453101 7.68483539 0 0 Z " fill="#32271D" transform="translate(202,56)"/>
<path d="M0 0 C2.31 0 4.62 0 7 0 C5.68 3.3 4.36 6.6 3 10 C2.34 10 1.68 10 1 10 C0.67 6.7 0.34 3.4 0 0 Z " fill="#F5FEF8" transform="translate(176,55)"/>
<path d="M0 0 C0.33 0 0.66 0 1 0 C0.42085333 6.01326751 -0.22337945 12.00892722 -1 18 C-1.99 17.34 -2.98 16.68 -4 16 C-4.66 16 -5.32 16 -6 16 C-5.67 14.68 -5.34 13.36 -5 12 C-4.34 12 -3.68 12 -3 12 C-2.87625 11.13375 -2.7525 10.2675 -2.625 9.375 C-2.01941879 6.10486147 -1.11693965 3.12743101 0 0 Z " fill="#699D75" transform="translate(179,128)"/>
<path d="M0 0 C0.66 0.33 1.32 0.66 2 1 C2 2.32 2 3.64 2 5 C1.01 5 0.02 5 -1 5 C-1 8.63 -1 12.26 -1 16 C-3 13 -3 13 -3 9 C-3.66 8.67 -4.32 8.34 -5 8 C-4.34 6.68 -3.68 5.36 -3 4 C-2.34 4 -1.68 4 -1 4 C-0.67 2.68 -0.34 1.36 0 0 Z " fill="#202522" transform="translate(76,139)"/>
<path d="M0 0 C2.0625 0.4375 2.0625 0.4375 4 1 C3.25 6.75 3.25 6.75 1 9 C0.01 8.67 -0.98 8.34 -2 8 C-1.125 1.125 -1.125 1.125 0 0 Z " fill="#4B935B" transform="translate(187,80)"/>
<path d="M0 0 C5.15171623 -0.09038099 9.91913204 0.15318867 15 1 C15 1.66 15 2.32 15 3 C10.05 3 5.1 3 0 3 C0 2.01 0 1.02 0 0 Z " fill="#1F5D2C" transform="translate(92,150)"/>
<path d="M0 0 C1.22589844 0.15275391 1.22589844 0.15275391 2.4765625 0.30859375 C3.41628906 0.43427734 3.41628906 0.43427734 4.375 0.5625 C4.375 1.5525 4.375 2.5425 4.375 3.5625 C1.735 3.2325 -0.905 2.9025 -3.625 2.5625 C-4.285 4.2125 -4.945 5.8625 -5.625 7.5625 C-6.285 7.2325 -6.945 6.9025 -7.625 6.5625 C-7.25 3.625 -7.25 3.625 -6.625 0.5625 C-4.10446405 -0.69776798 -2.7707902 -0.35624445 0 0 Z " fill="#246031" transform="translate(143.625,99.4375)"/>
<path d="M0 0 C1.32 0 2.64 0 4 0 C4 2.64 4 5.28 4 8 C1.03 7.505 1.03 7.505 -2 7 C-1.34 4.69 -0.68 2.38 0 0 Z " fill="#212624" transform="translate(94,54)"/>
<path d="M0 0 C0.66 0.99 1.32 1.98 2 3 C3.97747122 3.36297936 3.97747122 3.36297936 6.125 3.1875 C7.40375 3.125625 8.6825 3.06375 10 3 C10.33 3.66 10.66 4.32 11 5 C5.39 5 -0.22 5 -6 5 C-6 3.68 -6 2.36 -6 1 C-5.34 1 -4.68 1 -4 1 C-4 1.66 -4 2.32 -4 3 C-2.68 2.01 -1.36 1.02 0 0 Z " fill="#7EAC8A" transform="translate(148,199)"/>
<path d="M0 0 C6.50313209 -0.46450943 10.4174808 0.67424388 16 4 C15.67 4.66 15.34 5.32 15 6 C13.35 6 11.7 6 10 6 C10 5.01 10 4.02 10 3 C9.0925 3.061875 8.185 3.12375 7.25 3.1875 C3.71017358 2.98327924 2.55068845 2.35448165 0 0 Z " fill="#93BF9C" transform="translate(125,195)"/>
<path d="M0 0 C0.33 0 0.66 0 1 0 C0.67 5.28 0.34 10.56 0 16 C-0.66 16 -1.32 16 -2 16 C-2.05384521 13.70858714 -2.09272087 11.41681812 -2.125 9.125 C-2.14820313 7.84882813 -2.17140625 6.57265625 -2.1953125 5.2578125 C-2 2 -2 2 0 0 Z " fill="#442E17" transform="translate(200,127)"/>
<path d="M0 0 C0.97608217 2.92824652 1.08226668 4.95613276 1 8 C1.33 7.34 1.66 6.68 2 6 C2.66 6 3.32 6 4 6 C4.33 8.31 4.66 10.62 5 13 C4.401875 12.835 3.80375 12.67 3.1875 12.5 C0.88655664 11.8885876 0.88655664 11.8885876 -2 12 C-1.85904936 10.3745692 -1.71207913 8.74965949 -1.5625 7.125 C-1.48128906 6.22007812 -1.40007812 5.31515625 -1.31640625 4.3828125 C-1 2 -1 2 0 0 Z " fill="#303C33" transform="translate(165,193)"/>
<path d="M0 0 C0.33 0 0.66 0 1 0 C1.33 7.26 1.66 14.52 2 22 C1.67 22 1.34 22 1 22 C0.67 18.37 0.34 14.74 0 11 C-0.66 11 -1.32 11 -2 11 C-1.855625 10.29875 -1.71125 9.5975 -1.5625 8.875 C-0.98521625 5.92443859 -0.48304859 2.96729849 0 0 Z " fill="#54361B" transform="translate(206,63)"/>
<path d="M0 0 C0.66 0 1.32 0 2 0 C1.67 4.29 1.34 8.58 1 13 C3.475 13.99 3.475 13.99 6 15 C5.01 15.66 4.02 16.32 3 17 C0.984375 15.421875 0.984375 15.421875 -1 13 C-1.171875 9.765625 -1.171875 9.765625 -0.75 6.25 C-0.55664062 4.49429688 -0.55664062 4.49429688 -0.359375 2.703125 C-0.24078125 1.81109375 -0.1221875 0.9190625 0 0 Z " fill="#539065" transform="translate(68,178)"/>
<path d="M0 0 C0.66 0.99 1.32 1.98 2 3 C2.33 3.33 2.66 3.66 3 4 C3.33 4.66 3.66 5.32 4 6 C4.66 6.66 5.32 7.32 6 8 C4.02 8.99 4.02 8.99 2 10 C2 9.34 2 8.68 2 8 C0.02 8.99 0.02 8.99 -2 10 C-1.125 2.25 -1.125 2.25 0 0 Z " fill="#4C4C4C" transform="translate(76,118)"/>
<path d="M0 0 C1.65 0 3.3 0 5 0 C5 3.93169105 3.60580385 5.16427228 1 8 C0.34 8 -0.32 8 -1 8 C-0.67 5.36 -0.34 2.72 0 0 Z " fill="#50945F" transform="translate(147,103)"/>
<path d="M0 0 C0 0.99 0 1.98 0 3 C0.66 3 1.32 3 2 3 C1 5 1 5 -1 6 C-1.66 5.34 -2.32 4.68 -3 4 C-3.99 3.67 -4.98 3.34 -6 3 C-6 2.34 -6 1.68 -6 1 C-7.98 1 -9.96 1 -12 1 C-12 0.67 -12 0.34 -12 0 C-3.42857143 -1.28571429 -3.42857143 -1.28571429 0 0 Z " fill="#296435" transform="translate(126,99)"/>
<path d="M0 0 C10.55808656 -0.3690205 10.55808656 -0.3690205 15 2 C15 3.32 15 4.64 15 6 C14.01 6 13.02 6 12 6 C11.34 5.01 10.68 4.02 10 3 C7.58392583 2.20201782 7.58392583 2.20201782 4.875 1.8125 C3.50988281 1.57466797 3.50988281 1.57466797 2.1171875 1.33203125 C1.41851562 1.22246094 0.71984375 1.11289062 0 1 C0 0.67 0 0.34 0 0 Z " fill="#454844" transform="translate(151,49)"/>
<path d="M0 0 C2 3 2 3 1.8125 6 C1 9 1 9 -2 12 C-2 8.37 -2 4.74 -2 1 C-1.34 0.67 -0.68 0.34 0 0 Z " fill="#549562" transform="translate(123,169)"/>
<path d="M0 0 C0.66 0 1.32 0 2 0 C2.2295711 3.36704285 2.33943529 5.41370268 0.625 8.375 C0.08875 8.91125 -0.4475 9.4475 -1 10 C-1.66 10 -2.32 10 -3 10 C-3.3636198 5.75776898 -2.5393228 3.41831915 0 0 Z " fill="#6AAB77" transform="translate(116,158)"/>
<path d="M0 0 C1.98 0.66 3.96 1.32 6 2 C5.01 2.495 5.01 2.495 4 3 C3.64984951 4.66321482 3.31802943 6.33034549 3 8 C2.34 8.99 1.68 9.98 1 11 C0.67 7.37 0.34 3.74 0 0 Z " fill="#4C905C" transform="translate(178,69)"/>
<path d="M0 0 C6.27 0.66 12.54 1.32 19 2 C19 2.33 19 2.66 19 3 C17.02 3 15.04 3 13 3 C13 3.66 13 4.32 13 5 C11.68 4.67 10.36 4.34 9 4 C9 3.67 9 3.34 9 3 C6.36 3 3.72 3 1 3 C0.67 2.01 0.34 1.02 0 0 Z " fill="#6E5846" transform="translate(170,199)"/>
<path d="M0 0 C-1.65 0.33 -3.3 0.66 -5 1 C-5 3.31 -5 5.62 -5 8 C-6.32 8.33 -7.64 8.66 -9 9 C-9.33 7.35 -9.66 5.7 -10 4 C-9.01 3.67 -8.02 3.34 -7 3 C-6.67 2.01 -6.34 1.02 -6 0 C-3.42525708 -0.99667468 -2.51072708 -1.25536354 0 0 Z " fill="#519761" transform="translate(154,70)"/>
<path d="M0 0 C5.61 0 11.22 0 17 0 C16.67 0.66 16.34 1.32 16 2 C13.93359375 2.4140625 13.93359375 2.4140625 11.4375 2.625 C10.61121094 2.69976562 9.78492187 2.77453125 8.93359375 2.8515625 C7.97646484 2.92503906 7.97646484 2.92503906 7 3 C7 2.34 7 1.68 7 1 C6.01 1.33 5.02 1.66 4 2 C2.68 1.34 1.36 0.68 0 0 Z " fill="#2D6638" transform="translate(112,150)"/>
<path d="M0 0 C0.66 0 1.32 0 2 0 C1.57910004 5.60461531 1.08386889 10.72086547 -1 16 C-1.33 16 -1.66 16 -2 16 C-2.2396943 10.36718401 -1.38529821 5.45461169 0 0 Z " fill="#6C9676" transform="translate(79,135)"/>
<path d="M0 0 C0.66 0.33 1.32 0.66 2 1 C0.125 5.875 0.125 5.875 -1 7 C-3.33297433 7.04092937 -5.66705225 7.04241723 -8 7 C-7.01 6.01 -6.02 5.02 -5 4 C-4.01 4.33 -3.02 4.66 -2 5 C-1.34 3.35 -0.68 1.7 0 0 Z " fill="#85AD8F" transform="translate(122,196)"/>
<path d="M0 0 C0.66 0.33 1.32 0.66 2 1 C2.625 4.0625 2.625 4.0625 3 7 C1.35 6.67 -0.3 6.34 -2 6 C-2.33 5.01 -2.66 4.02 -3 3 C-2.01 2.01 -1.02 1.02 0 0 Z " fill="#4C925E" transform="translate(93,193)"/>
<path d="M0 0 C0.66 0.66 1.32 1.32 2 2 C1.96712417 4.72869407 1.43602229 7.2966618 1 10 C0.01 10 -0.98 10 -2 10 C-2.25 3.375 -2.25 3.375 0 0 Z " fill="#97BEA0" transform="translate(82,125)"/>
<path d="M0 0 C0.66 0.33 1.32 0.66 2 1 C2 1.99 2 2.98 2 4 C1.34 4 0.68 4 0 4 C0.33 4.99 0.66 5.98 1 7 C0.34 7.66 -0.32 8.32 -1 9 C-1.39764263 10.98821313 -1.73775349 12.98944339 -2 15 C-2.33 15 -2.66 15 -3 15 C-3.3152595 9.01006953 -2.68219822 5.36439644 0 0 Z " fill="#579766" transform="translate(86,120)"/>
<path d="M0 0 C1 2 2 4 3 6 C2.34 6 1.68 6 1 6 C1.33 7.65 1.66 9.3 2 11 C0.02 11.99 0.02 11.99 -2 13 C-2.19294408 8.17639811 -1.75747614 4.50353262 0 0 Z " fill="#553D23" transform="translate(201,93)"/>
<path d="M0 0 C1.98 0 3.96 0 6 0 C5.01 2.31 4.02 4.62 3 7 C1.68 6.34 0.36 5.68 -1 5 C-0.67 3.35 -0.34 1.7 0 0 Z " fill="#90C49C" transform="translate(152,86)"/>
<path d="M0 0 C-0.33 1.65 -0.66 3.3 -1 5 C-7.15234375 4.4140625 -7.15234375 4.4140625 -9 4 C-9.33 3.34 -9.66 2.68 -10 2 C-3.375 0 -3.375 0 0 0 Z " fill="#79B288" transform="translate(122,66)"/>
<path d="M0 0 C0.33 0.66 0.66 1.32 1 2 C2.32 1.67 3.64 1.34 5 1 C5.33 2.65 5.66 4.3 6 6 C3.69 5.67 1.38 5.34 -1 5 C-0.67 3.35 -0.34 1.7 0 0 Z " fill="#8DB997" transform="translate(80,194)"/>
<path d="M0 0 C1.98 0 3.96 0 6 0 C6 1.33333333 6 2.66666667 6 4 C3.03 4 0.06 4 -3 4 C-2.34 3.67 -1.68 3.34 -1 3 C-0.67 2.01 -0.34 1.02 0 0 Z " fill="#242422" transform="translate(67,203)"/>
<path d="M0 0 C0.99 0.33 1.98 0.66 3 1 C1.68 4.96 0.36 8.92 -1 13 C-1.33 13 -1.66 13 -2 13 C-1.85915204 11.20793453 -1.71216299 9.41635083 -1.5625 7.625 C-1.48128906 6.62726563 -1.40007812 5.62953125 -1.31640625 4.6015625 C-1 2 -1 2 0 0 Z " fill="#509760" transform="translate(170,144)"/>
<path d="M0 0 C0 3.23655184 -0.6550847 4.78752639 -2 7.6875 C-2.37125 8.49574219 -2.7425 9.30398437 -3.125 10.13671875 C-3.41375 10.75160156 -3.7025 11.36648437 -4 12 C-5.35015859 7.94952424 -4.62084998 5.2079832 -4 1 C-2.68 0.67 -1.36 0.34 0 0 Z " fill="#96BA9D" transform="translate(187,59)"/>
<path d="M0 0 C0.66 0 1.32 0 2 0 C1.38461538 5.53846154 1.38461538 5.53846154 -0.5625 7.875 C-1.036875 8.24625 -1.51125 8.6175 -2 9 C-2.6875 7.3125 -2.6875 7.3125 -3 5 C-1.6875 2.25 -1.6875 2.25 0 0 Z " fill="#85AE8F" transform="translate(174,150)"/>
<path d="M0 0 C0.66 0 1.32 0 2 0 C2.93402724 5.41735797 3.20808081 8.80451575 1 14 C0.67 14 0.34 14 0 14 C0 9.38 0 4.76 0 0 Z " fill="#DFEAE1" transform="translate(186,127)"/>
<path d="M0 0 C0.99 0.33 1.98 0.66 3 1 C2.125 4.875 2.125 4.875 1 6 C-0.66617115 6.04063832 -2.33388095 6.042721 -4 6 C-4.33 5.01 -4.66 4.02 -5 3 C-4.34 3 -3.68 3 -3 3 C-2.67 2.34 -2.34 1.68 -2 1 C-1.34 1.66 -0.68 2.32 0 3 C0 2.01 0 1.02 0 0 Z " fill="#1B4E23" transform="translate(127,100)"/>
<path d="M0 0 C0.70125 0.144375 1.4025 0.28875 2.125 0.4375 C5.07556141 1.01478375 8.03270151 1.51695141 11 2 C11 2.66 11 3.32 11 4 C8.36 4 5.72 4 3 4 C2.67 3.01 2.34 2.02 2 1 C1.34 0.67 0.68 0.34 0 0 Z " fill="#AACBB0" transform="translate(124,196)"/>
<path d="M0 0 C0.66 0 1.32 0 2 0 C2.185625 1.2065625 2.185625 1.2065625 2.375 2.4375 C2.58125 3.283125 2.7875 4.12875 3 5 C3.66 5.33 4.32 5.66 5 6 C5.33 5.01 5.66 4.02 6 3 C6 4.98 6 6.96 6 9 C3.15616877 7.7251791 0.86245982 6.54862922 -1 4 C-0.6875 1.8125 -0.6875 1.8125 0 0 Z " fill="#5C9C6C" transform="translate(108,192)"/>
<path d="M0 0 C1.32 0.66 2.64 1.32 4 2 C4 3.32 4 4.64 4 6 C2.02 6 0.04 6 -2 6 C-2.33 6.99 -2.66 7.98 -3 9 C-3 7.68 -3 6.36 -3 5 C-2.34 5 -1.68 5 -1 5 C-0.67 3.35 -0.34 1.7 0 0 Z " fill="#5B9B6A" transform="translate(154,80)"/>
<path d="M0 0 C0.99 0.33 1.98 0.66 3 1 C3 2.32 3 3.64 3 5 C2.01 4.67 1.02 4.34 0 4 C-0.66 5.65 -1.32 7.3 -2 9 C-2.33 9 -2.66 9 -3 9 C-3.36923077 3.46153846 -3.36923077 3.46153846 -1.5 1.125 C-1.005 0.75375 -0.51 0.3825 0 0 Z " fill="#6AA777" transform="translate(189,61)"/>
<path d="M0 0 C0.99 0.66 1.98 1.32 3 2 C3 2.66 3 3.32 3 4 C-1.29 4 -5.58 4 -10 4 C-10 3.67 -10 3.34 -10 3 C-8.906875 2.87625 -7.81375 2.7525 -6.6875 2.625 C-2.92618198 2.24535199 -2.92618198 2.24535199 0 0 Z " fill="#494D4C" transform="translate(170,206)"/>
<path d="M0 0 C1.32 0.66 2.64 1.32 4 2 C4 2.66 4 3.32 4 4 C5.32 4.33 6.64 4.66 8 5 C7.67 5.99 7.34 6.98 7 8 C4.36 6.02 1.72 4.04 -1 2 C-0.67 1.34 -0.34 0.68 0 0 Z " fill="#7BA484" transform="translate(87,195)"/>
<path d="M0 0 C6.93 0.495 6.93 0.495 14 1 C8.72727273 3.63636364 8.72727273 3.63636364 6 4 C5.34 3.34 4.68 2.68 4 2 C2.68 1.34 1.36 0.68 0 0 Z " fill="#326A3E" transform="translate(142,99)"/>
<path d="M0 0 C3.3 0 6.6 0 10 0 C10.33 0.99 10.66 1.98 11 3 C7.37 2.67 3.74 2.34 0 2 C0 1.34 0 0.68 0 0 Z " fill="#A1C1A9" transform="translate(166,55)"/>
<path d="M0 0 C3.16115776 1.36983503 3.9927092 1.9890638 6 5 C3.69 5 1.38 5 -1 5 C-0.67 3.35 -0.34 1.7 0 0 Z " fill="#F7FEF8" transform="translate(87,198)"/>
<path d="M0 0 C0.93423645 3.01031744 1.04449911 3.86650268 0 7 C-2.0625 7.6875 -2.0625 7.6875 -4 8 C-3.50168276 4.31245243 -2.89932357 2.39509338 0 0 Z " fill="#83B290" transform="translate(172,161)"/>
<path d="M0 0 C0.66 0.33 1.32 0.66 2 1 C2 2.98 2 4.96 2 7 C-0.375 7.625 -0.375 7.625 -3 8 C-3.66 7.34 -4.32 6.68 -5 6 C-4.01 5.67 -3.02 5.34 -2 5 C-0.78130071 2.49552484 -0.78130071 2.49552484 0 0 Z " fill="#3C874D" transform="translate(141,104)"/>
<path d="M0 0 C-0.25561323 2.3431213 -0.59270772 4.67843403 -1 7 C-1.99 7.495 -1.99 7.495 -3 8 C-2.67 6.35 -2.34 4.7 -2 3 C-3.65 3 -5.3 3 -7 3 C-4.49955934 -0.00052879 -4.2621484 0 0 0 Z " fill="#C3DDC8" transform="translate(99,77)"/>
<path d="M0 0 C1.32 0.66 2.64 1.32 4 2 C4 2.99 4 3.98 4 5 C1.36 5 -1.28 5 -4 5 C-2.68 3.35 -1.36 1.7 0 0 Z " fill="#414242" transform="translate(73,203)"/>
<path d="M0 0 C0.33 0 0.66 0 1 0 C1.36923077 5.53846154 1.36923077 5.53846154 -0.5 7.875 C-1.2425 8.431875 -1.2425 8.431875 -2 9 C-2.99 8.67 -3.98 8.34 -5 8 C-4.34 7.01 -3.68 6.02 -3 5 C-2.67 5.33 -2.34 5.66 -2 6 C-1.34 4.02 -0.68 2.04 0 0 Z " fill="#1F271F" transform="translate(83,116)"/>
<path d="M0 0 C0.33 0.66 0.66 1.32 1 2 C2.32 1.34 3.64 0.68 5 0 C5 1.32 5 2.64 5 4 C3.35 4.33 1.7 4.66 0 5 C-0.33 5.99 -0.66 6.98 -1 8 C-0.67 5.36 -0.34 2.72 0 0 Z " fill="#5A5A58" transform="translate(84,85)"/>
<path d="M0 0 C2.64 0.33 5.28 0.66 8 1 C5 2.5 5 2.5 2 4 C1.34444881 6.52733235 1.34444881 6.52733235 1 9 C0.67 9 0.34 9 0 9 C0 6.03 0 3.06 0 0 Z " fill="#4F925F" transform="translate(110,69)"/>
<path d="M0 0 C0.33 0 0.66 0 1 0 C1.12375 0.78375 1.2475 1.5675 1.375 2.375 C1.79117993 5.14057822 1.79117993 5.14057822 4 7 C2.35 7 0.7 7 -1 7 C-1.33 5.35 -1.66 3.7 -2 2 C-1.34 2 -0.68 2 0 2 C0 1.34 0 0.68 0 0 Z " fill="#539561" transform="translate(130,65)"/>
<path d="M0 0 C0.99 0.66 1.98 1.32 3 2 C2.67 2.99 2.34 3.98 2 5 C-0.0625 5.6875 -0.0625 5.6875 -2 6 C-2.33 5.01 -2.66 4.02 -3 3 C-2.34 3 -1.68 3 -1 3 C-0.67 2.01 -0.34 1.02 0 0 Z " fill="#68A272" transform="translate(103,192)"/>
<path d="M0 0 C0.78375 0.04125 1.5675 0.0825 2.375 0.125 C2.375 0.785 2.375 1.445 2.375 2.125 C3.365 2.455 4.355 2.785 5.375 3.125 C1.43829512 4.43723496 -0.74988144 3.36796256 -4.625 2.125 C-2.625 0.125 -2.625 0.125 0 0 Z " fill="#215C2E" transform="translate(146.625,120.875)"/>
<path d="M0 0 C0 3.3 0 6.6 0 10 C-0.33 10 -0.66 10 -1 10 C-1 8.35 -1 6.7 -1 5 C-1.99 5 -2.98 5 -4 5 C-4.33 5.99 -4.66 6.98 -5 8 C-5 4 -5 4 -3.0625 1.75 C-1 0 -1 0 0 0 Z " fill="#A7AF9C" transform="translate(201,88)"/>
<path d="M0 0 C0.99 0 1.98 0 3 0 C3 1.98 3 3.96 3 6 C2.67 5.34 2.34 4.68 2 4 C0.35 4.33 -1.3 4.66 -3 5 C-2.67 4.01 -2.34 3.02 -2 2 C-1.34 2 -0.68 2 0 2 C0 1.34 0 0.68 0 0 Z " fill="#8EB598" transform="translate(97,73)"/>
<path d="M0 0 C2 1.375 2 1.375 4 3 C4 3.66 4 4.32 4 5 C1.03 4.505 1.03 4.505 -2 4 C-1.34 2.68 -0.68 1.36 0 0 Z " fill="#85BE94" transform="translate(107,196)"/>
<path d="M0 0 C0.33 0 0.66 0 1 0 C1 3.96 1 7.92 1 12 C-1.475 11.01 -1.475 11.01 -4 10 C-2.68 9.67 -1.36 9.34 0 9 C0 6.03 0 3.06 0 0 Z " fill="#5A9869" transform="translate(86,184)"/>
<path d="M0 0 C0.33 0 0.66 0 1 0 C1.36923077 7.38461538 1.36923077 7.38461538 -0.5 10.5 C-0.995 10.995 -1.49 11.49 -2 12 C-1.85831863 10.56208484 -1.71148957 9.1246763 -1.5625 7.6875 C-1.48128906 6.88699219 -1.40007812 6.08648437 -1.31640625 5.26171875 C-1 3 -1 3 0 0 Z " fill="#5E9A6C" transform="translate(89,107)"/>
<path d="M0 0 C0.66 0 1.32 0 2 0 C2 1.32 2 2.64 2 4 C1.34 4 0.68 4 0 4 C0 4.66 0 5.32 0 6 C-0.66 6 -1.32 6 -2 6 C-2.33 6.66 -2.66 7.32 -3 8 C-2.45276317 4.62537285 -1.9451 2.91765 0 0 Z " fill="#68A173" transform="translate(158,86)"/>
<path d="M0 0 C4.455 0.99 4.455 0.99 9 2 C9 2.33 9 2.66 9 3 C5.7 3 2.4 3 -1 3 C-0.67 2.01 -0.34 1.02 0 0 Z " fill="#EEFCF3" transform="translate(95,200)"/>
<path d="M0 0 C-0.33 1.32 -0.66 2.64 -1 4 C-3.31 3.01 -5.62 2.02 -8 1 C-4.93251126 -0.86240388 -3.40254489 -1.2151946 0 0 Z " fill="#5E9C6E" transform="translate(138,194)"/>
<path d="M0 0 C0.33 0.66 0.66 1.32 1 2 C1.99 2.33 2.98 2.66 4 3 C4 3.66 4 4.32 4 5 C2.35 5.66 0.7 6.32 -1 7 C-0.67 4.69 -0.34 2.38 0 0 Z " fill="#202421" transform="translate(176,154)"/>
<path d="M0 0 C2.97 0.495 2.97 0.495 6 1 C6.33 1.99 6.66 2.98 7 4 C4.03 3.505 4.03 3.505 1 3 C0.67 3.66 0.34 4.32 0 5 C0 3.35 0 1.7 0 0 Z " fill="#3E834E" transform="translate(126,97)"/>
<path d="M0 0 C0.66 0 1.32 0 2 0 C2 1.65 2 3.3 2 5 C0.02 5.99 0.02 5.99 -2 7 C-1.125 2.25 -1.125 2.25 0 0 Z " fill="#7BA485" transform="translate(99,60)"/>
<path d="M0 0 C-0.66 1.65 -1.32 3.3 -2 5 C-2.33 3.68 -2.66 2.36 -3 1 C-4.65 1.33 -6.3 1.66 -8 2 C-6.14210462 -1.71579076 -3.44525918 -1.06921837 0 0 Z " fill="#72967A" transform="translate(203,56)"/>
</svg>
